<svg xmlns="http://www.w3.org/2000/svg" xmlns:xlink="http://www.w3.org/1999/xlink" width="1000" zoomAndPan="magnify" viewBox="0 0 750 374.999991" height="500" preserveAspectRatio="xMidYMid meet" version="1.0"><defs><g/><clipPath id="b4f275e4c6"><path d="M 9 81 L 320 81 L 320 294 L 9 294 Z M 9 81 " clip-rule="nonzero"/></clipPath><clipPath id="7a5fbca173"><path d="M 6.082031 72.085938 L 320.570312 90.039062 L 308.429688 302.691406 L -6.058594 284.738281 Z M 6.082031 72.085938 " clip-rule="nonzero"/></clipPath><clipPath id="09bd6efff8"><path d="M 6.082031 72.085938 L 320.570312 90.039062 L 308.429688 302.691406 L -6.058594 284.738281 Z M 6.082031 72.085938 " clip-rule="nonzero"/></clipPath></defs><g clip-path="url(#b4f275e4c6)"><g clip-path="url(#7a5fbca173)"><g clip-path="url(#09bd6efff8)"><path fill="#8b3c22" d="M 92.964844 290.042969 C 91.550781 289.574219 90.472656 289.035156 88.726562 287.925781 C 84.179688 285.042969 83.011719 284.582031 80.671875 284.753906 C 78.433594 284.917969 78.480469 284.941406 74.890625 281.761719 C 73.667969 280.679688 72.816406 280.3125 70.726562 279.980469 C 68.664062 279.648438 68.046875 279.234375 65.636719 276.53125 C 63.574219 274.21875 62.71875 273.5625 60.53125 272.625 C 56.542969 270.914062 52.496094 264.992188 52.085938 260.269531 L 51.96875 258.914062 L 51.167969 258.460938 C 46.78125 255.988281 44.679688 248.058594 47.117188 243.167969 L 47.445312 242.5 L 46.988281 242.015625 C 45.890625 240.84375 45.503906 239.460938 45.332031 236.074219 C 45.160156 232.738281 44.867188 231.316406 44.171875 230.457031 C 43.945312 230.175781 43.976562 230.066406 44.578125 228.9375 C 45.917969 226.4375 46.351562 224.4375 46.929688 218.132812 C 47.691406 209.863281 48.46875 207.246094 50.828125 205.039062 L 51.78125 204.148438 L 50.648438 203.304688 C 44.703125 198.875 40.996094 189.945312 41.925781 182.289062 L 42.101562 180.820312 L 41.429688 180.371094 C 38.960938 178.726562 38.179688 176.5625 37.367188 169.101562 C 36.65625 162.527344 36.445312 161.746094 33.699219 155.523438 C 31.109375 149.648438 31.101562 149.628906 31.207031 145.773438 L 31.292969 142.628906 L 30.816406 141.527344 C 30.242188 140.203125 29.046875 138.503906 26.691406 135.664062 C 12.183594 118.195312 5.03125 90.433594 13.160156 83.148438 L 14.496094 81.949219 L 20.160156 82.371094 C 51.082031 84.671875 75.375 95.675781 105.441406 121.003906 C 124.785156 137.292969 142.636719 157.300781 156.972656 178.753906 L 158.460938 180.980469 L 158.632812 180.5 C 158.972656 179.5625 158.636719 178.886719 156.996094 177.191406 C 154.355469 174.460938 154.453125 172.898438 157.410156 170.742188 C 158.761719 169.757812 158.75 170.148438 157.535156 166.074219 C 151.742188 146.660156 138.492188 124.039062 128.546875 116.566406 C 126.875 115.3125 126.34375 115.035156 124.121094 114.253906 C 120.363281 112.933594 118.449219 111.007812 118.582031 108.679688 C 118.679688 106.9375 124.339844 109.699219 128.714844 113.625 C 141.511719 125.113281 152.484375 143.78125 160.542969 167.773438 C 160.695312 168.222656 160.898438 168.582031 160.992188 168.570312 C 161.085938 168.554688 161.855469 168.53125 162.703125 168.523438 C 164.164062 168.503906 164.25 168.480469 164.429688 168.089844 C 179.179688 135.832031 192.738281 117.78125 207.457031 110.800781 C 209.382812 109.886719 209.75 110.03125 209.65625 111.667969 C 209.527344 113.902344 208.140625 115.046875 203.675781 116.601562 C 197.921875 118.601562 191.832031 125.0625 182.28125 139.296875 C 175.667969 149.148438 167.785156 164.5625 167.019531 169.128906 L 166.882812 169.945312 L 168.117188 170.9375 C 170.738281 173.054688 170.753906 175.117188 168.167969 177.5 C 166.019531 179.476562 165.539062 181.410156 167.523438 180.078125 C 168.621094 179.34375 169.566406 178.191406 171.28125 175.496094 C 177.644531 165.496094 197.207031 144.402344 210.96875 132.707031 C 246.695312 102.34375 278.984375 88.6875 312.65625 89.707031 L 316.449219 89.820312 L 317.09375 90.644531 C 320.5 94.988281 319.980469 106.058594 315.886719 116.402344 C 312.777344 124.257812 308.535156 131.261719 299.320312 143.773438 L 295.863281 148.464844 L 295.960938 150.175781 C 296.148438 153.550781 295.453125 155.84375 292.746094 160.765625 C 290.023438 165.71875 289.144531 168.386719 288.484375 173.703125 C 287.460938 181.960938 286.839844 183.617188 284.039062 185.585938 L 283.199219 186.171875 L 282.960938 189.746094 C 282.351562 198.734375 279.109375 205.035156 273.386719 208.355469 L 272.269531 209.003906 L 272.851562 209.476562 C 274.777344 211.046875 275.546875 213.488281 275.597656 218.1875 C 275.683594 226 275.699219 226.164062 276.539062 228.402344 C 276.800781 229.089844 277.273438 230.351562 277.59375 231.210938 C 278.71875 234.199219 278.71875 234.976562 277.617188 237.117188 C 276.90625 238.5 276.875 238.738281 276.761719 243.367188 C 276.703125 245.707031 276.414062 246.445312 275.261719 247.195312 L 274.75 247.527344 L 275.027344 248.265625 C 277.101562 253.78125 274.441406 261.902344 269.910156 263.894531 C 269.175781 264.21875 269.003906 264.695312 268.589844 267.535156 C 268.15625 270.511719 267.695312 271.398438 265.132812 274.195312 C 262.472656 277.09375 261.359375 277.851562 259.683594 277.914062 C 258.027344 277.972656 257.5625 278.316406 254.84375 281.441406 C 252.84375 283.75 252.238281 284.089844 249.554688 284.421875 C 247.816406 284.640625 246.878906 285.046875 244.898438 286.453125 C 242.566406 288.101562 242.0625 288.289062 239.839844 288.34375 C 237.203125 288.40625 236.472656 288.664062 231.238281 291.363281 C 227.824219 293.125 226.996094 293.332031 224.65625 293.023438 C 220.914062 292.523438 218.769531 292.511719 215.132812 292.964844 C 208.3125 293.820312 207.625 293.710938 204.253906 291.214844 C 202.316406 289.78125 201.472656 289.425781 199.179688 289.082031 C 192.246094 288.042969 185.457031 277.554688 174.808594 251.414062 C 171.445312 243.160156 169.488281 237.53125 167.578125 230.621094 L 166.746094 227.617188 L 166.589844 228.386719 C 166.503906 228.808594 166.117188 233.640625 165.722656 239.125 C 165.332031 244.609375 164.964844 249.277344 164.90625 249.496094 C 164.847656 249.714844 164.6875 250.46875 164.546875 251.171875 C 163.945312 254.195312 162.546875 257.382812 161.140625 258.933594 L 160.542969 259.589844 L 160.078125 258.953125 C 157.039062 254.820312 156.273438 248.269531 156.75 230.484375 L 156.847656 226.882812 L 153.878906 234.359375 C 146.925781 251.871094 141.390625 262.933594 133.5 275.089844 C 127.3125 284.621094 125.105469 286.742188 120.875 287.207031 C 118.523438 287.464844 117.65625 287.796875 115.375 289.304688 C 112.183594 291.414062 110.636719 291.582031 105.058594 290.414062 C 100.992188 289.5625 99.511719 289.484375 97.761719 290.042969 C 96.214844 290.539062 94.449219 290.539062 92.96875 290.046875 Z M 107.28125 287.6875 C 108.296875 287.238281 108.902344 286.191406 108.738281 285.171875 L 108.660156 284.675781 L 107.484375 284.699219 C 104.816406 284.746094 103.816406 286.15625 105.671875 287.257812 C 106.757812 287.90625 106.78125 287.910156 107.28125 287.6875 Z M 113.546875 286.226562 C 113.8125 286.117188 114.785156 285.953125 115.714844 285.863281 C 117.671875 285.671875 118.425781 285.410156 118.789062 284.800781 C 119.265625 283.992188 119.234375 283.976562 117.09375 283.953125 C 113.636719 283.917969 112.152344 284.664062 112.816406 286.097656 C 112.996094 286.480469 112.949219 286.472656 113.546875 286.226562 Z M 99.417969 285.21875 C 99.757812 285.148438 99.792969 285.054688 99.855469 283.898438 L 99.929688 282.648438 L 98.171875 282.265625 C 96.234375 281.835938 95.097656 281.964844 94.839844 282.644531 C 94.363281 283.898438 97.441406 285.632812 99.417969 285.21875 Z M 213.945312 290.097656 C 214.835938 289.621094 215.65625 288.4375 215.300781 288.136719 C 214.433594 287.390625 211.957031 286.796875 211.285156 287.167969 C 211.003906 287.328125 211.097656 288.019531 211.585938 289.34375 L 211.933594 290.292969 L 212.679688 290.335938 C 213.128906 290.359375 213.628906 290.265625 213.945312 290.097656 Z M 88.015625 282 C 88.117188 280.246094 86.421875 278.929688 83.878906 278.78125 C 82.535156 278.707031 82.5 278.769531 83.214844 280.054688 C 84.179688 281.804688 87.941406 283.324219 88.015625 282 Z M 207.457031 287.828125 C 206.921875 286.628906 205.992188 286.238281 203.3125 286.085938 C 201.144531 285.960938 201.019531 286.015625 201.589844 286.835938 C 202.03125 287.464844 202.988281 287.839844 204.90625 288.128906 C 205.847656 288.269531 206.828125 288.457031 207.082031 288.542969 C 207.640625 288.730469 207.761719 288.503906 207.457031 287.828125 Z M 112.753906 282.203125 C 113.722656 281.8125 113.335938 278.167969 112.304688 278.011719 C 109.574219 277.59375 106.253906 279.914062 107.703125 281.226562 C 108.765625 282.191406 111.476562 282.714844 112.753906 282.203125 Z M 223.386719 288.003906 C 224.847656 287.65625 225.976562 285.992188 225.101562 285.484375 C 223.03125 284.28125 219.34375 285.660156 219.910156 287.429688 C 220.074219 287.949219 222.164062 288.292969 223.386719 288.003906 Z M 103.871094 279.308594 C 103.800781 276.117188 98.273438 273.886719 95.949219 276.109375 C 95.464844 276.574219 95.476562 276.597656 96.472656 277.40625 C 98.410156 278.96875 100.351562 279.726562 102.59375 279.800781 L 103.882812 279.84375 Z M 122.761719 280.179688 C 130.484375 279.203125 139.425781 260.542969 141.582031 240.894531 C 142.179688 235.441406 142.042969 235.28125 139.804688 238.816406 C 138.949219 240.167969 136.214844 244.28125 133.722656 247.957031 C 131.230469 251.632812 128.691406 255.414062 128.078125 256.355469 C 127.464844 257.296875 126.109375 259.332031 125.070312 260.875 C 119.679688 268.851562 116.96875 277.558594 119.21875 279.65625 C 119.679688 280.085938 121.449219 280.347656 122.761719 280.183594 Z M 76.867188 277.140625 C 77.558594 276.792969 76.808594 274.375 75.800781 273.703125 C 73.429688 272.128906 70.117188 273.976562 72.191406 275.71875 C 73.769531 277.042969 75.820312 277.667969 76.867188 277.140625 Z M 211.433594 284.261719 C 213.207031 283.527344 213.3125 283.441406 213.125 282.847656 C 212.269531 280.125 207.253906 279.601562 206.757812 282.179688 C 206.3125 284.484375 208.519531 285.46875 211.433594 284.261719 Z M 234.371094 285.671875 C 236.648438 285.21875 238.558594 282.601562 236.683594 282.503906 C 234.210938 282.371094 232.621094 283.289062 232.277344 285.046875 L 232.132812 285.792969 L 232.765625 285.828125 C 233.113281 285.847656 233.835938 285.777344 234.371094 285.671875 Z M 90.8125 276.550781 C 92.488281 275.714844 92.625 273.703125 91.058594 272.878906 C 88.484375 271.53125 84.523438 273.746094 86.21875 275.589844 C 87.261719 276.726562 89.515625 277.199219 90.8125 276.550781 Z M 199.671875 282.503906 C 202.890625 281.257812 202.691406 275.417969 199.183594 268.019531 C 196.601562 262.582031 194.628906 259.226562 188.363281 249.625 C 185.453125 245.160156 181.976562 239.371094 181.453125 238.105469 C 179.414062 233.203125 180.515625 247.492188 182.832031 256.011719 C 187.933594 274.765625 194.199219 284.625 199.671875 282.507812 Z M 219.285156 282.410156 C 224.089844 281.898438 226.667969 278.617188 222.457031 278.378906 C 219.230469 278.191406 216.886719 279.550781 216.175781 282.015625 L 216.046875 282.453125 L 216.976562 282.503906 C 217.488281 282.535156 218.527344 282.492188 219.285156 282.410156 Z M 111.023438 273.550781 C 113.921875 272.632812 116.339844 270.496094 119.527344 266.035156 C 120.195312 265.097656 121.542969 263.21875 122.527344 261.851562 C 125.101562 258.269531 126.414062 256.332031 130.582031 249.957031 C 134.066406 244.628906 135.191406 242.996094 140.785156 235.117188 C 146.011719 227.761719 148.609375 223.230469 150.699219 217.820312 C 152.574219 212.964844 153.914062 206.203125 153.101562 205.707031 C 152.609375 205.40625 152.546875 205.449219 151.535156 206.800781 C 147.257812 212.492188 141.039062 217.511719 128.976562 224.996094 C 123.066406 228.667969 119.835938 230.824219 119.746094 231.164062 C 117.453125 239.675781 114.066406 247.132812 107.742188 257.617188 C 103.769531 264.203125 102.917969 269.667969 105.328125 273.121094 C 105.84375 273.859375 109.234375 274.117188 111.027344 273.550781 Z M 245.65625 281.226562 C 247.839844 281 249.097656 279.800781 248.839844 278.191406 C 248.460938 275.832031 243.707031 277.738281 243.335938 280.398438 L 243.214844 281.257812 L 243.917969 281.296875 C 244.304688 281.320312 245.085938 281.285156 245.65625 281.226562 Z M 232.429688 280.296875 C 234.550781 279.890625 235.164062 277.800781 233.527344 276.554688 C 231.792969 275.238281 228.527344 276.148438 228.421875 277.980469 C 228.316406 279.855469 229.914062 280.78125 232.429688 280.296875 Z M 80.894531 271.40625 C 81.476562 271.34375 81.488281 271.324219 81.4375 270.75 C 81.28125 269.101562 80.433594 268.519531 77.855469 268.292969 L 76.046875 268.132812 L 76.019531 268.636719 C 75.917969 270.441406 78.136719 271.699219 80.894531 271.40625 Z M 67.738281 270.265625 C 68.9375 269.78125 67.132812 266.777344 65.171875 266 C 63.789062 265.453125 62.597656 265.902344 61.988281 267.203125 C 61.140625 269.011719 65.320312 271.234375 67.738281 270.265625 Z M 214.464844 276.347656 C 215.6875 276.066406 216.539062 273.964844 216.722656 270.777344 C 216.941406 266.945312 216.042969 264.292969 212.230469 257.527344 C 208.246094 250.445312 205.878906 244.40625 202.910156 233.742188 L 202.523438 232.355469 L 201.433594 231.652344 C 188.136719 223.09375 177.035156 214 172.128906 207.652344 C 171.054688 206.261719 170.800781 206.085938 170.664062 206.632812 C 170.621094 206.800781 170.46875 207.011719 170.324219 207.105469 C 169.820312 207.429688 170.898438 212.910156 172.320312 217.261719 C 174.492188 223.894531 177.589844 229.742188 185.238281 241.644531 C 189.328125 248.007812 190.855469 250.527344 193.382812 255.078125 C 203.339844 273.019531 208.097656 277.816406 214.464844 276.351562 Z M 94.003906 267.726562 C 100.363281 267.304688 102.566406 265.269531 108.332031 254.5 C 109.691406 251.957031 111.46875 248.6875 112.277344 247.230469 C 115.753906 240.980469 117.21875 237.230469 117.707031 233.332031 L 117.90625 231.742188 L 117.269531 231.792969 C 115.53125 231.933594 105.234375 236.570312 99.234375 239.914062 C 85.492188 247.578125 78.628906 255.933594 81.113281 261.980469 C 82.570312 265.53125 88.339844 268.101562 94 267.726562 Z M 241.664062 275.183594 C 244.695312 274.867188 245.621094 272.351562 242.761719 272.1875 C 240.957031 272.085938 239.015625 273.441406 238.9375 274.859375 C 238.914062 275.261719 239.847656 275.371094 241.664062 275.183594 Z M 71.804688 264.992188 C 72.246094 264.828125 72.632812 264.675781 72.664062 264.652344 C 73.1875 264.253906 70.929688 262.226562 69.886719 262.160156 C 69.539062 262.136719 69.742188 263.382812 70.234375 264.292969 C 70.84375 265.421875 70.753906 265.382812 71.804688 264.992188 Z M 256.46875 274.6875 C 258.371094 273.941406 259.566406 272.441406 258.886719 271.640625 C 256.949219 269.351562 253.210938 270.789062 252.828125 273.96875 C 252.699219 275.0625 254.566406 275.429688 256.46875 274.6875 Z M 57.816406 262.304688 C 58.558594 259.195312 57.984375 256.546875 56.453125 255.992188 C 55.660156 255.707031 55.082031 260.285156 55.707031 261.914062 C 56.402344 263.734375 57.429688 263.925781 57.816406 262.304688 Z M 231.410156 270.945312 C 237 270.160156 240.671875 266.542969 240.304688 262.183594 C 239.597656 253.769531 228.152344 244.140625 208.113281 235.097656 L 205.367188 233.859375 L 204.9375 234.144531 C 203.046875 235.386719 212.617188 258.21875 218.144531 265.652344 C 221.457031 270.109375 225.605469 271.761719 231.410156 270.945312 Z M 64.226562 258.234375 C 64.710938 257.007812 62.40625 253.851562 61.574219 254.59375 C 61.378906 254.765625 61.675781 257.246094 61.949219 257.746094 C 62.488281 258.742188 63.902344 259.046875 64.226562 258.234375 Z M 250.226562 269.210938 L 251.046875 269.082031 L 251.015625 267.84375 C 250.984375 266.367188 251.035156 266.472656 250.445312 266.65625 C 249.753906 266.875 248.015625 268.527344 247.988281 268.992188 C 247.976562 269.253906 249.1875 269.371094 250.226562 269.210938 Z M 264.792969 267.914062 C 266.578125 265.539062 266.234375 261.097656 264.253906 260.980469 C 264.011719 260.96875 263.527344 262.601562 262.960938 265.355469 C 262.582031 267.191406 263.925781 269.066406 264.792969 267.914062 Z M 76.058594 255.027344 C 78.222656 254.179688 80.269531 252.546875 84.378906 248.371094 C 88.726562 243.957031 91.464844 242.085938 99.652344 237.925781 C 103.734375 235.855469 103.476562 235.992188 103.386719 235.925781 C 103.214844 235.789062 96.253906 235.726562 94.121094 235.839844 C 80.15625 236.578125 70.644531 240.039062 68.296875 245.234375 C 65.855469 250.644531 70.917969 257.035156 76.058594 255.027344 Z M 258.515625 263.191406 C 259.660156 262.511719 260.308594 260.710938 259.738281 259.789062 C 259.402344 259.25 259.179688 259.304688 258.285156 260.160156 C 256.300781 262.050781 256.480469 264.402344 258.515625 263.191406 Z M 53.882812 249.070312 C 53.898438 248.773438 54.039062 248.273438 54.1875 247.964844 C 54.851562 246.597656 54.175781 245.554688 52.585938 245.503906 C 52.230469 245.488281 51.390625 247.480469 51.332031 248.460938 L 51.277344 249.46875 L 53.851562 249.613281 Z M 249.25 259.539062 C 252.429688 258.65625 255.039062 253.835938 254.054688 250.667969 C 252.125 244.464844 237.054688 238.625 222.917969 238.605469 C 219.320312 238.601562 219.34375 238.582031 221.351562 239.792969 C 226.105469 242.664062 232.082031 247.324219 236.324219 251.46875 C 243.308594 258.296875 246.519531 260.300781 249.25 259.539062 Z M 142.144531 253.335938 C 142.179688 252.746094 144.675781 247.902344 147.871094 242.222656 C 155.796875 228.136719 157.855469 221.652344 157.421875 212.152344 C 157.296875 209.386719 156.644531 208.597656 155.988281 210.414062 C 155.09375 212.902344 153.28125 216.605469 150.398438 221.859375 C 143.199219 234.972656 141.113281 242.152344 141.738281 251.6875 C 141.832031 253.148438 142.09375 254.210938 142.144531 253.335938 Z M 61.636719 248.316406 C 62.019531 248.101562 61.535156 246.023438 60.945312 245.367188 C 60.265625 244.601562 59.792969 244.644531 59.4375 245.5 C 58.753906 247.167969 60.253906 249.089844 61.636719 248.316406 Z M 180.46875 252.039062 C 180.683594 241.460938 178.675781 234.125 171.804688 220.335938 C 170.503906 217.730469 168.824219 214.21875 168.070312 212.53125 L 166.699219 209.464844 L 166.511719 210.425781 C 164.71875 219.402344 167.3125 229.566406 175.300781 244.875 C 177.15625 248.433594 179.03125 252.140625 179.460938 253.113281 C 180.457031 255.355469 180.398438 255.414062 180.46875 252.039062 Z M 269.980469 254.566406 C 270.96875 254.140625 270.617188 252.371094 269.316406 251.195312 C 268.367188 250.339844 267.5 251.210938 267.542969 252.976562 C 267.582031 254.664062 268.445312 255.226562 269.980469 254.566406 Z M 261.882812 252.96875 C 262.175781 252.679688 262.296875 252.007812 262.332031 250.476562 L 262.355469 249.53125 L 261.90625 249.617188 C 260.90625 249.808594 260.351562 250.679688 260.265625 252.1875 L 260.207031 253.160156 L 260.90625 253.199219 C 261.375 253.226562 261.699219 253.148438 261.882812 252.96875 Z M 53.796875 240.53125 C 54.167969 239.324219 53.335938 237.699219 51.949219 236.9375 C 50.816406 236.316406 50.285156 237.703125 50.769531 240.011719 L 50.992188 241.066406 L 52.300781 241.09375 L 53.613281 241.121094 Z M 60.882812 238.539062 C 62.039062 237.683594 60.089844 235.4375 58.515625 235.8125 C 57.519531 236.050781 57.457031 236.242188 58.050781 237.234375 C 58.882812 238.640625 60.027344 239.167969 60.882812 238.539062 Z M 72.789062 239 C 85.398438 237.511719 97.5 227.515625 98.425781 217.824219 L 98.628906 215.71875 L 97.800781 215.589844 C 97.164062 215.492188 96.652344 215.550781 95.609375 215.835938 C 93.753906 216.34375 91.609375 216.613281 85.9375 217.050781 C 73.132812 218.039062 70.632812 218.742188 66.371094 222.542969 C 57.117188 230.800781 60.863281 240.410156 72.789062 239.003906 Z M 270.890625 245.988281 C 272.109375 244.890625 272.128906 242.050781 270.914062 241.980469 C 270.519531 241.957031 268.695312 243.617188 268.460938 244.210938 C 267.714844 246.097656 269.398438 247.328125 270.886719 245.988281 Z M 58.035156 232.238281 C 58.785156 230.421875 58.007812 226.789062 57.171875 228.203125 C 57.054688 228.394531 56.589844 228.867188 56.136719 229.246094 C 54.800781 230.355469 54.949219 231.273438 56.625 232.324219 C 57.636719 232.953125 57.742188 232.949219 58.035156 232.238281 Z M 256.09375 243.507812 C 263.722656 241.476562 263.25 232.648438 255.152344 225.800781 C 251.511719 222.722656 248.570312 221.933594 237.257812 221.007812 C 230.460938 220.453125 229.347656 220.265625 226.902344 219.269531 C 223.691406 217.957031 223.410156 219.800781 225.917969 225.765625 C 229.523438 234.359375 237.96875 240.566406 249.945312 243.433594 C 250.855469 243.648438 255.355469 243.707031 256.09375 243.507812 Z M 98.433594 234.078125 C 104.890625 233.335938 111.109375 231.296875 119.148438 227.277344 C 140.089844 216.804688 147.292969 210.625 149.546875 201.175781 C 149.902344 199.6875 148.222656 199.914062 142.015625 202.1875 C 131.335938 206.105469 129.753906 206.28125 122.167969 204.40625 C 110.296875 201.472656 106.472656 204.097656 100.058594 219.570312 C 96.558594 228.015625 94.949219 230.945312 92.457031 233.417969 L 91.648438 234.222656 L 94.066406 234.261719 C 95.394531 234.285156 97.363281 234.203125 98.433594 234.078125 Z M 263.3125 243.394531 C 264.324219 242.808594 264.867188 240.9375 264.09375 240.695312 C 262.859375 240.308594 261.136719 241.542969 261.390625 242.628906 C 261.65625 243.746094 262.273438 243.992188 263.3125 243.394531 Z M 51.050781 231.007812 C 51.453125 230.789062 51.5 230.414062 51.207031 229.757812 C 50.554688 228.300781 48.4375 228.78125 48.34375 230.40625 C 48.304688 231.117188 50.117188 231.519531 51.050781 231.007812 Z M 230.59375 237.457031 C 230.597656 237.0625 229.523438 235.058594 228.628906 233.796875 C 226.457031 230.738281 225.78125 229.3125 223.136719 222.261719 C 220.5625 215.386719 219.097656 212.519531 216.910156 210.0625 C 213.414062 206.132812 210.664062 205.523438 201.671875 206.699219 C 193.378906 207.78125 192.125 207.550781 181.996094 203.109375 C 178.0625 201.386719 174.964844 200.449219 174.753906 200.917969 C 172.765625 205.328125 178.609375 213.136719 189.265625 220.308594 C 204.746094 230.730469 214.453125 235.394531 224.242188 237.113281 C 225.210938 237.28125 230.59375 237.574219 230.59375 237.457031 Z M 51.390625 225.371094 C 52.199219 224.203125 51.808594 221.859375 50.683594 221.113281 C 50.054688 220.695312 50.070312 220.675781 49.691406 222.269531 C 49.050781 224.964844 50.210938 227.078125 51.390625 225.371094 Z M 265.917969 237.566406 C 267.425781 236.695312 267.363281 234.386719 265.800781 233.292969 C 264.695312 232.519531 264.652344 232.625 264.339844 236.679688 C 264.242188 237.945312 264.757812 238.234375 265.917969 237.566406 Z M 58.144531 225.402344 C 59.347656 224.863281 59.636719 223.371094 58.992188 221.03125 C 58.484375 219.203125 57.652344 219.027344 56.394531 220.492188 C 54.464844 222.742188 55.785156 226.453125 58.144531 225.402344 Z M 273.425781 236.429688 C 274.25 236.09375 274.054688 235.011719 273.0625 234.425781 C 272.796875 234.265625 272.558594 234.160156 272.527344 234.1875 C 270.632812 235.894531 271.210938 237.339844 273.425781 236.429688 Z M 273.019531 230.796875 C 274.304688 229.433594 273.582031 226.308594 271.957031 226.214844 C 271.464844 226.1875 270.835938 229.992188 271.242188 230.5625 C 271.773438 231.316406 272.445312 231.40625 273.019531 230.796875 Z M 266.890625 230.246094 C 268.007812 228.492188 266.875 224.636719 265.21875 224.539062 C 264.308594 224.484375 263.46875 227.648438 263.894531 229.515625 L 264.109375 230.449219 L 265.386719 230.523438 C 266.546875 230.589844 266.6875 230.5625 266.890625 230.246094 Z M 55.421875 215.46875 C 58.957031 214.003906 60.207031 212.640625 60.738281 209.667969 L 60.890625 208.824219 L 60.15625 208.445312 C 56.828125 206.742188 53.269531 209.785156 52.667969 214.855469 L 52.476562 216.476562 L 52.949219 216.386719 C 53.207031 216.335938 54.320312 215.925781 55.421875 215.46875 Z M 82.519531 215.882812 C 90.371094 215.867188 96.910156 215.082031 99.835938 213.800781 C 101.875 212.90625 103.125 211.460938 104.96875 207.851562 C 106.542969 204.765625 108.195312 202.6875 109.066406 202.691406 C 109.59375 202.695312 108.429688 202.34375 106.558594 201.933594 C 84.054688 197 67.160156 201.796875 67.855469 212.917969 C 67.972656 214.8125 73.335938 215.894531 82.519531 215.882812 Z M 270.933594 220.785156 C 271.242188 215.015625 265.582031 210.570312 262.949219 214.515625 L 262.507812 215.175781 L 263.171875 216.226562 C 264.601562 218.492188 266.644531 220.238281 269.011719 221.214844 C 270.882812 221.988281 270.871094 221.992188 270.933594 220.785156 Z M 250.875 220 C 254.65625 219.4375 256.25 218.386719 256.164062 216.511719 C 255.746094 207.265625 244.21875 202.433594 225.65625 203.722656 C 220.378906 204.089844 213.09375 205.25 215.289062 205.375 C 215.917969 205.414062 216.949219 206.957031 218.484375 210.160156 C 221.453125 216.351562 222.738281 217.195312 230.867188 218.296875 C 232.585938 218.527344 235.6875 218.960938 237.757812 219.257812 C 243.105469 220.019531 242.984375 220.007812 246.265625 220.132812 C 248.476562 220.214844 249.667969 220.183594 250.875 220 Z M 130.230469 203.191406 C 137.082031 202.765625 144.074219 200.96875 144.746094 199.464844 C 145.144531 198.570312 144.929688 198.460938 143.453125 198.800781 C 138.207031 200 131.679688 200.277344 118.628906 199.855469 C 109.253906 199.550781 105.972656 199.488281 105.964844 199.617188 C 105.933594 200.222656 113.925781 202.25 118.621094 202.824219 C 120.722656 203.082031 128.203125 203.320312 130.230469 203.191406 Z M 202.640625 204.980469 C 207.972656 204.792969 218.316406 203.335938 218.351562 202.769531 C 218.355469 202.695312 210.550781 202.210938 201.007812 201.691406 C 185.347656 200.835938 183.40625 200.703125 181.039062 200.308594 C 179.59375 200.070312 178.386719 199.898438 178.355469 199.925781 C 178.242188 200.03125 181.699219 201.84375 182.875 202.296875 C 187.871094 204.226562 195.316406 205.234375 202.636719 204.980469 Z M 76.585938 193.796875 C 78.144531 193.574219 80.035156 193.085938 83.632812 191.96875 C 96.507812 187.972656 102.1875 187.804688 118.007812 190.941406 C 126.492188 192.625 129.273438 193.09375 134.003906 193.640625 C 143.085938 194.691406 150.453125 193.65625 154.265625 190.785156 L 154.84375 190.351562 L 153.671875 190.171875 C 148.488281 189.390625 143.824219 186.980469 136.484375 181.296875 C 131.105469 177.125 128.757812 175.625 123 172.683594 C 111.183594 166.644531 107.671875 166.089844 96.980469 168.589844 C 90.910156 170.007812 89.125 170.207031 82.128906 170.238281 C 74.792969 170.277344 72.296875 170.539062 69.667969 171.550781 C 57.738281 176.140625 63.789062 195.609375 76.585938 193.796875 Z M 54.257812 188.179688 C 55.84375 187.496094 56.78125 185.632812 56.136719 184.4375 C 54.289062 181.03125 49.042969 181.152344 48.847656 184.605469 C 48.691406 187.4375 51.5625 189.335938 54.257812 188.179688 Z M 191.015625 195.035156 C 194.847656 194.796875 199.183594 194.292969 206.511719 193.234375 C 217.550781 191.640625 219.882812 191.425781 223.753906 191.648438 C 229.328125 191.964844 236.179688 193.585938 242.703125 196.121094 C 250.695312 199.230469 254.25 198.875 258.175781 194.578125 C 264.136719 188.050781 262.832031 179.207031 255.488281 176.363281 C 252.347656 175.148438 250.195312 174.785156 242.351562 174.144531 C 235.355469 173.574219 234.425781 173.417969 228.433594 171.789062 C 215.199219 168.195312 210.972656 169.234375 193.792969 180.304688 C 185.121094 185.894531 183.371094 186.757812 177.339844 188.441406 C 173.792969 189.429688 171.304688 190.347656 170.410156 190.992188 L 169.992188 191.296875 L 171.089844 191.871094 C 175.875 194.375 183.128906 195.527344 191.015625 195.035156 Z M 155.875 186.761719 C 155.59375 180.027344 151.453125 174.265625 134.179688 156.578125 C 132.25 154.605469 128.347656 150.421875 125.507812 147.28125 C 110.8125 131.042969 103.886719 126.542969 91.167969 124.964844 C 88.066406 124.582031 80.058594 124.632812 79.5625 125.042969 C 79.53125 125.070312 79.925781 125.644531 80.445312 126.320312 C 84.246094 131.28125 86.996094 137.203125 87.78125 142.109375 L 87.933594 143.058594 L 90.203125 144.574219 C 96.050781 148.480469 97.34375 149.386719 98.832031 150.632812 C 102.109375 153.371094 104.164062 155.945312 105.273438 158.722656 C 106.820312 162.582031 106.96875 162.882812 107.75 163.761719 C 108.910156 165.058594 110.339844 165.828125 115.054688 167.679688 C 118.332031 168.96875 119.957031 169.710938 122.242188 170.96875 C 126.667969 173.40625 133.640625 177.546875 136.277344 179.308594 C 143.152344 183.902344 145.28125 185.148438 148.335938 186.367188 C 150.667969 187.300781 152.296875 187.695312 154.335938 187.832031 L 155.921875 187.9375 Z M 172.59375 188.058594 C 176.683594 187.488281 180.183594 185.90625 187.019531 181.535156 C 193.488281 177.40625 195 176.640625 205.644531 172.125 C 217.289062 167.183594 218.457031 166.59375 218.851562 165.484375 C 221.0625 159.25 228.109375 152.449219 236.984375 147.980469 C 238.660156 147.136719 238.648438 147.152344 239.25 145.214844 C 241.046875 139.398438 243.992188 133.84375 246.589844 131.378906 C 248.792969 129.289062 248.4375 129.019531 243.101562 128.734375 C 225.496094 127.78125 216.796875 132.257812 198.070312 151.910156 C 192.472656 157.78125 190.386719 159.875 186.515625 163.503906 C 179.925781 169.679688 177.894531 171.726562 175.515625 174.585938 C 171.886719 178.945312 169.800781 183.074219 169.261719 186.960938 L 169.070312 188.316406 L 170.023438 188.300781 C 170.542969 188.289062 171.699219 188.183594 172.59375 188.058594 Z M 273.46875 193.59375 C 277.375 192.460938 276.511719 186.828125 272.496094 187.246094 C 269.667969 187.539062 267.953125 189.695312 268.875 191.792969 C 269.535156 193.292969 271.652344 194.121094 273.46875 193.59375 Z M 47.347656 172.65625 C 47.421875 171.234375 46.660156 170.347656 45.09375 170.039062 L 44.335938 169.890625 L 44.40625 170.523438 C 44.578125 172.066406 45.28125 173.132812 46.335938 173.457031 C 47.207031 173.726562 47.296875 173.65625 47.347656 172.65625 Z M 58.003906 172.960938 C 58.460938 172.820312 59.039062 172.515625 59.289062 172.285156 L 59.738281 171.863281 L 59.753906 169.886719 L 59.765625 167.914062 L 58.914062 167.863281 C 56.210938 167.710938 53.800781 168.867188 52.632812 170.871094 L 52.179688 171.65625 L 52.664062 172.113281 C 53.84375 173.222656 56.015625 173.570312 58.003906 172.960938 Z M 73.636719 169.605469 C 74.914062 169.460938 78.054688 168.988281 80.613281 168.550781 C 83.167969 168.117188 86.871094 167.558594 88.839844 167.308594 C 106.53125 165.078125 108.492188 161.023438 96.539062 151.371094 C 91.867188 147.597656 85.339844 146.9375 70.667969 148.75 C 61.8125 149.847656 58.472656 153.953125 60.050781 161.804688 C 61.417969 168.609375 64.855469 170.582031 73.636719 169.605469 Z M 270.664062 178.417969 C 272.039062 178.277344 273.160156 176.902344 272.714844 175.898438 C 271.453125 173.035156 265.507812 171.765625 265.363281 174.328125 C 265.234375 176.554688 267.566406 178.746094 269.808594 178.507812 C 269.941406 178.492188 270.328125 178.453125 270.664062 178.417969 Z M 279.355469 178.9375 C 280.347656 178.578125 280.71875 178.058594 280.859375 176.8125 C 281.007812 175.503906 280.925781 175.453125 279.546875 176 C 277.378906 176.863281 277.191406 179.714844 279.355469 178.9375 Z M 44.105469 162.257812 C 44.027344 160.570312 43.214844 159.382812 41.300781 158.160156 C 40.183594 157.445312 40.167969 157.449219 40.246094 158.359375 C 40.449219 160.839844 41.359375 162.28125 43.140625 162.9375 C 44.070312 163.277344 44.148438 163.226562 44.105469 162.257812 Z M 53.972656 163.292969 C 58.199219 162.066406 56.125 156.722656 51.320312 156.449219 C 48.933594 156.3125 47.160156 157.59375 47.050781 159.539062 C 46.902344 162.128906 50.765625 164.222656 53.972656 163.292969 Z M 258.808594 174.1875 C 266.308594 173.042969 268.925781 158.878906 262.304688 155.242188 C 256.734375 152.183594 237.804688 150.167969 233.109375 152.132812 C 230.878906 153.066406 226.273438 156.671875 224.226562 159.089844 C 219.160156 165.070312 222.234375 168.128906 236.078125 170.875 C 238.007812 171.261719 241.3125 171.933594 243.421875 172.367188 C 251.398438 174.023438 256.191406 174.589844 258.808594 174.1875 Z M 274.734375 168.859375 C 280.277344 167.996094 280.726562 162.078125 275.273438 161.777344 C 271.929688 161.589844 269.160156 164.207031 269.613281 167.128906 C 269.804688 168.371094 272.347656 169.230469 274.734375 168.859375 Z M 284.214844 167.898438 C 285.46875 166.773438 285.863281 165.441406 285.34375 164.085938 L 285.097656 163.433594 L 284.714844 163.980469 C 284.503906 164.277344 283.957031 164.804688 283.5 165.148438 C 282.300781 166.046875 281.359375 168.230469 281.902344 168.839844 C 282.160156 169.125 283.421875 168.613281 284.214844 167.898438 Z M 49.460938 150.074219 C 50.601562 149.570312 51.503906 148.332031 51.421875 147.375 C 51.300781 145.960938 44.671875 145.71875 44.390625 147.117188 C 43.925781 149.425781 46.941406 151.183594 49.460938 150.074219 Z M 38.425781 149.015625 C 39.507812 148.535156 39.949219 146.261719 39.035156 145.902344 C 37.789062 145.410156 36.566406 146.363281 36.605469 147.792969 C 36.636719 149.121094 37.257812 149.539062 38.425781 149.015625 Z M 71.789062 147.601562 C 74.015625 147.457031 75.695312 147.078125 80.058594 145.730469 C 82.324219 145.03125 84.667969 144.359375 85.269531 144.234375 C 86.464844 143.988281 86.480469 143.964844 86.175781 142.914062 C 86.058594 142.519531 85.648438 140.78125 85.265625 139.054688 C 84.125 133.917969 83.457031 132.078125 82.132812 130.382812 C 76.976562 123.808594 62.332031 123.734375 58.746094 130.265625 C 53.785156 139.300781 60.574219 148.320312 71.789062 147.601562 Z M 280.816406 155.394531 C 281.144531 154.996094 281.589844 154.460938 281.800781 154.203125 C 282.886719 152.894531 281.199219 151.429688 278.785156 151.589844 C 274.125 151.894531 274.382812 155.695312 279.082031 156.03125 L 280.21875 156.113281 Z M 289.746094 154.195312 C 289.859375 151.964844 289.523438 151.582031 287.886719 152.050781 L 287.253906 152.234375 L 287.265625 153.164062 C 287.285156 154.527344 287.878906 155.167969 289.25 155.3125 L 289.691406 155.359375 Z M 48.121094 140.523438 C 53.59375 138.9375 52.503906 130.433594 46.789062 130.109375 C 42.714844 129.875 39.808594 134.066406 41.40625 137.863281 C 42.347656 140.105469 45.398438 141.3125 48.121094 140.523438 Z M 261.042969 152.207031 C 266.613281 151.042969 269.792969 146.902344 269.792969 140.820312 C 269.789062 132.558594 264.46875 128.800781 254.863281 130.277344 C 246.898438 131.5 243.992188 134.117188 242.089844 141.78125 C 241.207031 145.34375 240.707031 147.277344 240.613281 147.480469 C 240.558594 147.609375 240.941406 147.789062 241.769531 148.023438 C 242.453125 148.214844 244.863281 149.015625 247.128906 149.800781 C 249.394531 150.589844 252 151.417969 252.917969 151.644531 C 253.839844 151.867188 254.769531 152.097656 254.988281 152.148438 C 255.882812 152.367188 260.085938 152.410156 261.042969 152.207031 Z M 37.5 135.851562 C 39.457031 134.976562 39.226562 132.664062 37.171875 132.546875 C 35.542969 132.457031 34.03125 133.949219 34.304688 135.378906 C 34.457031 136.175781 36.207031 136.433594 37.5 135.851562 Z M 281.355469 146.09375 C 288.019531 145.074219 287.597656 136.070312 280.875 135.738281 C 275.9375 135.496094 273.269531 142.914062 277.394531 145.410156 C 278.515625 146.089844 279.863281 146.320312 281.355469 146.09375 Z M 30.847656 130.820312 C 31.734375 128.996094 30.527344 126.847656 28.546875 126.730469 C 27.308594 126.652344 26.746094 128.175781 27.414062 129.792969 C 28.042969 131.304688 30.285156 131.972656 30.847656 130.820312 Z M 292.53125 142.257812 C 293.050781 142.109375 293.066406 142.085938 293.035156 141.324219 C 292.9375 138.746094 289.539062 137.648438 288.273438 139.789062 L 287.957031 140.324219 L 288.457031 140.804688 C 289.742188 142.03125 291.335938 142.601562 292.53125 142.257812 Z M 38.753906 126.878906 C 39.195312 126.40625 39.167969 124.636719 38.703125 123.535156 L 38.292969 122.566406 L 37.039062 122.550781 C 34.957031 122.527344 34.6875 123.136719 35.601562 125.796875 L 36.011719 126.992188 L 37.265625 127.0625 C 38.234375 127.117188 38.570312 127.074219 38.753906 126.878906 Z M 49.367188 125.179688 C 55.640625 123.953125 57.300781 116.847656 51.699219 115.1875 C 48.269531 114.167969 39.453125 115.449219 38.613281 117.082031 C 36.191406 121.8125 42.457031 126.53125 49.367188 125.179688 Z M 298.378906 137.71875 C 299.984375 137.199219 300.765625 135.597656 300.265625 133.847656 L 300.113281 133.3125 L 299.105469 133.320312 C 297.386719 133.328125 296.335938 134.324219 296.238281 136.03125 C 296.136719 137.746094 296.761719 138.238281 298.378906 137.71875 Z M 29.757812 120.730469 C 32.890625 119.859375 33.175781 116.730469 30.269531 115.101562 C 27.105469 113.320312 22.90625 115.832031 24.105469 118.789062 C 24.765625 120.402344 27.523438 121.351562 29.757812 120.730469 Z M 76.183594 121.511719 C 77.691406 121.21875 77.769531 121.15625 77.578125 120.351562 C 76.570312 116.128906 67.828125 114.300781 64.09375 117.53125 C 63.269531 118.25 63.277344 118.277344 64.503906 118.984375 C 68.605469 121.347656 72.59375 122.207031 76.183594 121.511719 Z M 101.167969 122.488281 C 101.175781 122.308594 99.167969 120.199219 97.738281 118.886719 C 93.8125 115.289062 88.863281 112.753906 83.527344 111.609375 C 81.535156 111.183594 81.527344 111.238281 83.308594 113.042969 C 87.269531 117.050781 91.15625 119.691406 95.5 121.324219 C 97.921875 122.234375 101.144531 122.898438 101.167969 122.488281 Z M 291.964844 132.453125 C 292.671875 130.191406 292.441406 128.621094 291.398438 128.59375 C 289.269531 128.535156 287.980469 130.355469 288.746094 132.335938 L 289.019531 133.035156 L 291.734375 133.191406 Z M 283.484375 131.019531 C 286.9375 130.410156 289.207031 128.320312 289.835938 125.167969 L 290.09375 123.882812 L 289.59375 123.304688 C 287.761719 121.179688 281.359375 119.675781 277.636719 120.496094 C 268.46875 122.507812 274.113281 132.667969 283.484375 131.019531 Z M 230.449219 125.324219 C 235.558594 123.847656 240.226562 121.230469 244.609375 117.394531 C 247.25 115.085938 247.257812 115.121094 244.210938 115.699219 C 236.589844 117.144531 228.460938 121.996094 226.800781 126.089844 C 226.726562 126.265625 228.417969 125.914062 230.449219 125.324219 Z M 22.621094 112.816406 C 23.703125 112.582031 24.296875 112 24.242188 111.242188 C 24.035156 108.585938 19.738281 106.835938 18.511719 108.910156 C 17.210938 111.105469 19.683594 113.453125 22.621094 112.816406 Z M 257.855469 125.929688 C 260.261719 125.457031 262.453125 124.460938 263.816406 123.21875 L 264.476562 122.613281 L 263.71875 122.066406 C 259.582031 119.09375 251.570312 120.457031 250.535156 124.3125 C 250.179688 125.636719 254.488281 126.589844 257.855469 125.929688 Z M 64.078125 114.144531 C 65.425781 113.96875 67.453125 113.222656 67.472656 112.902344 C 67.511719 112.222656 66.09375 110.773438 64.683594 110.054688 C 62.230469 108.800781 55.792969 108.191406 55.734375 109.207031 C 55.5625 112.179688 59.835938 114.710938 64.078125 114.144531 Z M 300.660156 127.46875 C 301.597656 127.253906 302.816406 126.710938 303.382812 126.253906 C 303.6875 126.011719 303.726562 125.816406 303.769531 124.265625 L 303.816406 122.550781 L 302.644531 121.910156 C 299.613281 120.253906 297.019531 121.105469 296.683594 123.867188 C 296.371094 126.457031 298.132812 128.054688 300.660156 127.46875 Z M 44.101562 110.742188 C 49.101562 110.203125 53.230469 107.839844 53.367188 105.4375 C 53.414062 104.601562 41.867188 103.421875 38.613281 103.933594 C 34.882812 104.515625 32.78125 106.003906 32.210938 108.460938 C 31.914062 109.730469 31.875 109.6875 33.519531 110.046875 C 36.71875 110.753906 41.257812 111.050781 44.101562 110.742188 Z M 69.183594 107.933594 C 69.242188 101.5 60.066406 96.59375 59.738281 102.882812 C 59.542969 106.632812 62.089844 108.582031 68.394531 109.507812 C 69.109375 109.613281 69.171875 109.496094 69.183594 107.933594 Z M 26.972656 106.03125 C 28.296875 105.675781 29.175781 105.230469 29.875 104.566406 L 30.339844 104.125 L 30.046875 103.433594 C 28.382812 99.523438 20.609375 99.304688 20.390625 103.164062 C 20.242188 105.761719 23.199219 107.050781 26.972656 106.03125 Z M 267.589844 118.964844 C 270.167969 118.496094 272.328125 116.824219 272.863281 114.886719 L 273.003906 114.382812 L 272.074219 114.195312 C 267.699219 113.316406 262.847656 114.492188 260.972656 116.894531 C 260.367188 117.671875 260.421875 117.757812 261.921875 118.421875 C 263.492188 119.121094 265.625 119.324219 267.589844 118.964844 Z M 81.492188 107.847656 C 81.617188 105.644531 77.566406 102.589844 73.613281 101.914062 L 72.636719 101.746094 L 72.78125 102.246094 C 73.273438 103.976562 75.179688 106.082031 76.972656 106.882812 C 78.398438 107.519531 81.472656 108.175781 81.492188 107.847656 Z M 308.472656 119.480469 C 309.742188 118.914062 310.390625 118.019531 310.464844 116.734375 C 310.625 113.917969 305.082031 114.65625 304.371094 117.546875 C 303.964844 119.179688 306.480469 120.363281 308.472656 119.480469 Z M 292.101562 116.761719 C 293.605469 116.453125 295.4375 115.65625 296.125 115.015625 L 296.613281 114.5625 L 296.265625 113.808594 C 294.457031 109.871094 282.585938 108.070312 275.824219 110.710938 L 274.921875 111.0625 L 275.136719 111.542969 C 276.71875 115.085938 286.167969 117.996094 292.101562 116.761719 Z M 42.441406 102.003906 C 46.683594 101.332031 50.375 98.847656 50.109375 96.847656 C 49.601562 93.003906 31.113281 93.230469 30.90625 97.078125 C 30.71875 100.582031 36.332031 102.976562 42.441406 102.003906 Z M 263.144531 113.757812 C 266.613281 113.132812 268.988281 110.433594 269.1875 106.890625 L 269.269531 105.449219 L 268.679688 105.207031 C 264.964844 103.675781 260.257812 107.507812 259.226562 112.894531 L 259.070312 113.699219 L 259.609375 113.804688 C 260.335938 113.949219 262.242188 113.921875 263.144531 113.757812 Z M 249.148438 111.785156 C 251.78125 111.4375 254.019531 110.089844 255.402344 108.027344 C 256.410156 106.519531 256.5 106.121094 255.800781 106.210938 C 251.261719 106.808594 248.375 108.636719 247.363281 111.5625 C 247.210938 112 247.378906 112.019531 249.148438 111.785156 Z M 17.722656 98.066406 C 18.308594 97.945312 18.265625 97.070312 17.613281 95.871094 L 17.070312 94.871094 L 16.269531 94.929688 C 15.027344 95.023438 13.191406 96.117188 13.152344 96.785156 C 13.128906 97.1875 16.890625 98.238281 17.722656 98.066406 Z M 55.90625 99.628906 C 56.886719 99.238281 57.496094 98.519531 57.46875 97.789062 C 57.417969 96.363281 53.265625 95.832031 52.363281 97.136719 C 51.121094 98.933594 53.476562 100.59375 55.90625 99.628906 Z M 69.105469 99.902344 C 68.695312 98.605469 67.632812 97.804688 65.25 97.003906 C 63.808594 96.519531 63.800781 96.519531 63.984375 97.402344 C 64.261719 98.722656 65.320312 99.539062 67.753906 100.292969 C 69.464844 100.820312 69.40625 100.839844 69.105469 99.902344 Z M 305.6875 112.910156 C 307.636719 112.371094 309.039062 110.207031 308.277344 108.925781 C 306.496094 105.9375 298.742188 107.046875 298.554688 110.316406 C 298.457031 112.050781 302.933594 113.675781 305.6875 112.910156 Z M 27.746094 94.796875 C 30.707031 93.398438 30.113281 89.855469 26.835938 89.367188 C 22.722656 88.757812 20.199219 93.304688 23.785156 94.859375 C 24.859375 95.328125 26.6875 95.296875 27.746094 94.796875 Z M 292.296875 108.1875 C 296.125 107.863281 298.308594 106.074219 297.808594 103.671875 C 296.722656 98.476562 280.269531 98.328125 278.652344 103.5 C 277.972656 105.671875 286.683594 108.660156 292.300781 108.1875 Z M 261.0625 105.007812 C 263.265625 104.535156 265.210938 103.167969 265.277344 102.054688 C 265.359375 100.609375 260.746094 102.664062 259.636719 104.5625 C 259.113281 105.453125 259.0625 105.4375 261.0625 105.007812 Z M 275.894531 105.105469 C 278.070312 104.464844 277.0625 101.917969 274.578125 101.777344 C 271.746094 101.617188 271.191406 102.15625 272.140625 104.144531 L 272.609375 105.125 L 273.980469 105.195312 C 274.730469 105.234375 275.59375 105.195312 275.894531 105.105469 Z M 16.839844 88.078125 C 18.054688 87.839844 18.007812 87.628906 16.609375 87.050781 C 14.859375 86.328125 13.425781 86.421875 13.375 87.261719 C 13.328125 88.109375 14.859375 88.46875 16.839844 88.078125 Z M 314.625 104.707031 C 315.722656 104.246094 315.824219 103.699219 314.976562 102.832031 C 313.667969 101.496094 310.625 102.546875 310.523438 104.378906 C 310.476562 105.148438 313.082031 105.355469 314.625 104.707031 Z M 38.96875 89.078125 C 39.242188 88.789062 38.824219 87.53125 38.246094 86.878906 C 35.894531 84.242188 29.851562 84.457031 29.695312 87.179688 C 29.644531 88.050781 38.269531 89.816406 38.96875 89.078125 Z M 305.867188 101.496094 C 309.507812 99.636719 305.660156 94.808594 301.65625 96.21875 C 300.011719 96.796875 298.980469 98.597656 299.554688 99.878906 C 300.304688 101.566406 303.925781 102.492188 305.867188 101.496094 Z M 294.652344 95.238281 C 297.949219 94.960938 300.308594 93.425781 299.054688 92.375 C 296.425781 90.167969 290.761719 91.683594 290.570312 94.648438 L 290.539062 95.171875 L 292.027344 95.253906 C 292.847656 95.296875 294.027344 95.292969 294.652344 95.238281 Z M 316.011719 95.121094 C 316.738281 94.460938 314.910156 93.617188 313.359375 93.894531 C 312.574219 94.039062 311.394531 94.753906 311.375 95.097656 C 311.355469 95.414062 315.667969 95.433594 316.011719 95.121094 Z M 316.011719 95.121094 " fill-opacity="1" fill-rule="nonzero"/></g></g></g><g fill="#8b3c22" fill-opacity="1"><g transform="translate(333.808668, 188.024005)"><g><path d="M 2.496094 -66.398438 C 2.496094 -48.101562 16.355469 -41.308594 35.347656 -35.761719 C 58.773438 -28.832031 71.941406 -17.742188 65.425781 -11.921875 C 53.78125 -1.664062 46.574219 -34.238281 25.921875 -34.238281 C 5.40625 -34.238281 1.109375 -15.109375 3.1875 0.136719 L 6.238281 0.136719 C 6.238281 -5.960938 7.625 -9.839844 14.554688 -9.839844 C 21.484375 -9.839844 30.496094 0.96875 44.21875 0.96875 C 62.101562 0.96875 75.683594 -12.753906 75.683594 -28.277344 C 75.683594 -47.546875 51.425781 -55.863281 39.78125 -59.1875 C 16.355469 -65.703125 5.542969 -76.378906 12.199219 -81.921875 C 24.394531 -92.039062 29.109375 -59.742188 49.761719 -59.742188 C 70.417969 -59.742188 74.574219 -78.871094 72.632812 -94.121094 L 69.445312 -94.121094 C 69.445312 -88.019531 68.058594 -84.140625 61.128906 -84.140625 C 54.335938 -84.140625 47.128906 -94.8125 33.40625 -94.8125 C 15.800781 -94.8125 2.496094 -81.644531 2.496094 -66.398438 Z M 2.496094 -66.398438 "/></g></g></g><g fill="#8b3c22" fill-opacity="1"><g transform="translate(411.985953, 188.024005)"><g><path d="M 33.546875 0 L 33.546875 -49.207031 C 36.179688 -49.761719 38.8125 -49.070312 42 -47.546875 C 45.1875 -45.882812 48.238281 -44.496094 51.289062 -44.078125 L 51.289062 0 L 81.644531 0 L 81.644531 -93.980469 L 51.289062 -93.980469 L 51.289062 -47.269531 C 49.070312 -47.683594 46.574219 -48.929688 43.527344 -50.457031 C 40.890625 -51.84375 37.425781 -53.089844 33.546875 -52.535156 L 33.546875 -93.980469 L 3.1875 -93.980469 L 3.1875 0 Z M 33.546875 0 "/></g></g></g><g fill="#8b3c22" fill-opacity="1"><g transform="translate(496.816624, 188.024005)"><g><path d="M 60.019531 -50.59375 L 42 -50.59375 C 11.089844 -50.59375 6.238281 -77.070312 15.664062 -82.753906 C 29.800781 -91.347656 32.4375 -59.742188 52.953125 -59.742188 C 73.605469 -59.742188 77.902344 -78.871094 75.824219 -94.121094 L 72.773438 -94.121094 C 72.773438 -88.019531 71.25 -84.140625 64.457031 -84.140625 C 57.527344 -84.140625 47.960938 -94.8125 34.238281 -94.8125 C -4.851562 -94.8125 0.691406 -56.140625 30.773438 -48.238281 C 14.417969 -45.328125 2.496094 -38.257812 2.496094 -24.8125 C 2.496094 -9.703125 18.296875 0.96875 44.355469 0.96875 C 63.070312 0.96875 73.1875 -5.265625 81.507812 -14.554688 L 79.980469 -16.21875 C 67.921875 -3.464844 45.328125 1.523438 34.375 -20.097656 C 25.921875 -36.59375 30.496094 -46.992188 44.910156 -46.992188 L 57.664062 -46.992188 Z M 60.019531 -50.59375 "/></g></g></g><g fill="#8b3c22" fill-opacity="1"><g transform="translate(575.686967, 188.024005)"><g><path d="M 76.101562 -36.457031 L 72.632812 -36.59375 C 73.328125 -32.160156 69.722656 -24.257812 62.792969 -24.257812 C 56 -24.257812 48.101562 -35.070312 34.375 -35.070312 C 24.8125 -35.070312 13.445312 -30.496094 7.347656 -18.992188 C 11.78125 -40.613281 33.546875 -34.515625 33.546875 -50.59375 L 33.546875 -93.980469 L 3.1875 -93.980469 L 3.1875 0 L 6.652344 0 C 6.652344 -6.652344 8.316406 -13.863281 18.019531 -13.863281 C 27.585938 -13.863281 30.773438 0.96875 51.425781 0.96875 C 77.902344 0.96875 78.734375 -23.980469 76.101562 -36.457031 Z M 76.101562 -36.457031 "/></g></g></g><g fill="#8b3c22" fill-opacity="1"><g transform="translate(655.250367, 188.024005)"><g><path d="M 57.25 -45.464844 L 33.40625 -45.464844 C 31.464844 -61.269531 8.59375 -60.160156 7.347656 -68.753906 C 6.792969 -72.496094 8.316406 -76.378906 14 -76.378906 C 26.335938 -76.378906 34.929688 -59.605469 56.417969 -59.605469 C 74.4375 -59.605469 80.8125 -78.734375 78.734375 -93.980469 L 75.683594 -93.980469 C 75.683594 -87.882812 73.050781 -84 66.953125 -84 C 54.058594 -84 46.714844 -95.089844 29.246094 -95.089844 C 15.523438 -95.089844 3.1875 -88.714844 3.1875 -64.871094 L 3.1875 0 L 33.546875 0 L 33.546875 -42.140625 L 57.25 -42.140625 Z M 57.25 -45.464844 "/></g></g></g><g fill="#8b3c22" fill-opacity="1"><g transform="translate(736.915812, 188.024005)"><g/></g></g><g fill="#8b3c22" fill-opacity="1"><g transform="translate(333.369926, 272.821278)"><g><path d="M 28.921875 -10.265625 C 28.921875 -8.847656 28.65625 -7.515625 28.125 -6.265625 C 27.59375 -5.023438 26.859375 -3.9375 25.921875 -3 C 24.984375 -2.070312 23.882812 -1.335938 22.625 -0.796875 C 21.363281 -0.265625 20.023438 0 18.609375 0 L 2.90625 0 L 2.90625 -36.75 L 17.265625 -36.75 C 18.503906 -36.75 19.675781 -36.507812 20.78125 -36.03125 C 21.894531 -35.550781 22.863281 -34.894531 23.6875 -34.0625 C 24.519531 -33.226562 25.175781 -32.25 25.65625 -31.125 C 26.144531 -30.007812 26.390625 -28.8125 26.390625 -27.53125 C 26.390625 -25.9375 26.128906 -24.488281 25.609375 -23.1875 C 25.085938 -21.894531 24.242188 -20.800781 23.078125 -19.90625 C 25.046875 -19.175781 26.507812 -17.9375 27.46875 -16.1875 C 28.4375 -14.445312 28.921875 -12.472656 28.921875 -10.265625 Z M 8.296875 -21.875 C 9.679688 -21.84375 10.957031 -21.828125 12.125 -21.828125 L 17.3125 -21.828125 C 18.625 -21.828125 19.726562 -22.316406 20.625 -23.296875 C 21.53125 -24.285156 21.984375 -25.472656 21.984375 -26.859375 C 21.984375 -28.273438 21.53125 -29.46875 20.625 -30.4375 C 19.726562 -31.40625 18.625 -31.890625 17.3125 -31.890625 L 8.296875 -31.890625 Z M 8.296875 -5.03125 C 8.535156 -5 9.070312 -4.984375 9.90625 -4.984375 L 18.609375 -4.984375 C 19.335938 -4.984375 20.019531 -5.132812 20.65625 -5.4375 C 21.300781 -5.75 21.863281 -6.171875 22.34375 -6.703125 C 22.832031 -7.242188 23.210938 -7.875 23.484375 -8.59375 C 23.765625 -9.320312 23.90625 -10.101562 23.90625 -10.9375 C 23.90625 -11.769531 23.765625 -12.539062 23.484375 -13.25 C 23.210938 -13.957031 22.832031 -14.578125 22.34375 -15.109375 C 21.863281 -15.648438 21.300781 -16.070312 20.65625 -16.375 C 20.019531 -16.6875 19.335938 -16.84375 18.609375 -16.84375 L 8.296875 -16.84375 Z M 8.296875 -5.03125 "/></g></g></g><g fill="#8b3c22" fill-opacity="1"><g transform="translate(364.479721, 272.821278)"><g><path d="M 25.34375 -36.75 L 25.34375 -31.890625 L 8.296875 -31.890625 L 8.296875 -21.875 L 23.484375 -21.875 L 23.484375 -16.84375 L 8.296875 -16.84375 L 8.296875 -5.03125 L 25.34375 -5.03125 L 25.34375 0 L 2.90625 0 L 2.90625 -36.75 Z M 25.34375 -36.75 "/></g></g></g><g fill="#8b3c22" fill-opacity="1"><g transform="translate(392.945204, 272.821278)"><g><path d="M 6.484375 0 L 0.5625 0 L 15.859375 -36.75 L 21.828125 -36.75 L 37.125 0 L 31.265625 0 L 26.4375 -11.515625 L 11.25 -11.515625 Z M 13.328125 -16.484375 L 24.359375 -16.484375 L 18.875 -29.765625 Z M 13.328125 -16.484375 "/></g></g></g><g fill="#8b3c22" fill-opacity="1"><g transform="translate(430.899154, 272.821278)"><g><path d="M 29.90625 -13.015625 C 29.90625 -11.148438 29.550781 -9.394531 28.84375 -7.75 C 28.132812 -6.101562 27.175781 -4.664062 25.96875 -3.4375 C 24.757812 -2.21875 23.34375 -1.253906 21.71875 -0.546875 C 20.09375 0.160156 18.347656 0.515625 16.484375 0.515625 C 14.617188 0.515625 12.875 0.160156 11.25 -0.546875 C 9.625 -1.253906 8.207031 -2.21875 7 -3.4375 C 5.789062 -4.664062 4.832031 -6.101562 4.125 -7.75 C 3.414062 -9.394531 3.0625 -11.148438 3.0625 -13.015625 L 3.0625 -36.75 L 8.453125 -36.75 L 8.453125 -13.015625 C 8.453125 -11.910156 8.65625 -10.851562 9.0625 -9.84375 C 9.476562 -8.84375 10.050781 -7.953125 10.78125 -7.171875 C 11.507812 -6.398438 12.363281 -5.789062 13.34375 -5.34375 C 14.332031 -4.894531 15.378906 -4.671875 16.484375 -4.671875 C 17.585938 -4.671875 18.625 -4.894531 19.59375 -5.34375 C 20.5625 -5.789062 21.40625 -6.398438 22.125 -7.171875 C 22.851562 -7.953125 23.425781 -8.84375 23.84375 -9.84375 C 24.257812 -10.851562 24.46875 -11.910156 24.46875 -13.015625 L 24.46875 -36.75 L 29.90625 -36.75 Z M 29.90625 -13.015625 "/></g></g></g><g fill="#8b3c22" fill-opacity="1"><g transform="translate(463.77185, 272.821278)"><g><path d="M 10.21875 -31.890625 L 0.265625 -31.890625 L 0.265625 -36.75 L 25.609375 -36.75 L 25.609375 -31.890625 L 15.609375 -31.890625 L 15.609375 0 L 10.21875 0 Z M 10.21875 -31.890625 "/></g></g></g><g fill="#8b3c22" fill-opacity="1"><g transform="translate(490.837377, 272.821278)"><g><path d="M 13.421875 -17.21875 L 0.46875 -36.75 L 6.953125 -36.75 L 16.125 -22.96875 L 25.296875 -36.75 L 31.828125 -36.75 L 18.875 -17.21875 L 18.875 0 L 13.421875 0 Z M 13.421875 -17.21875 "/></g></g></g><g fill="#8b3c22" fill-opacity="1"><g transform="translate(523.347129, 272.821278)"><g/></g></g><g fill="#8b3c22" fill-opacity="1"><g transform="translate(536.879892, 272.821278)"><g><path d="M 27.421875 -10.3125 C 27.421875 -8.757812 27.109375 -7.316406 26.484375 -5.984375 C 25.867188 -4.648438 24.957031 -3.484375 23.75 -2.484375 C 21.363281 -0.484375 18.300781 0.515625 14.5625 0.515625 C 11.664062 0.515625 9.039062 -0.078125 6.6875 -1.265625 C 4.332031 -2.460938 2.601562 -4.0625 1.5 -6.0625 L 6.125 -8.453125 C 6.8125 -7.203125 7.90625 -6.238281 9.40625 -5.5625 C 10.914062 -4.894531 12.632812 -4.5625 14.5625 -4.5625 C 19.570312 -4.5625 22.078125 -6.476562 22.078125 -10.3125 C 22.078125 -11.039062 21.945312 -11.660156 21.6875 -12.171875 C 21.4375 -12.691406 21.050781 -13.179688 20.53125 -13.640625 C 19.28125 -14.671875 17.050781 -15.601562 13.84375 -16.4375 C 11.90625 -16.914062 10.257812 -17.445312 8.90625 -18.03125 C 7.5625 -18.625 6.441406 -19.316406 5.546875 -20.109375 C 3.367188 -21.878906 2.28125 -24.210938 2.28125 -27.109375 C 2.28125 -28.566406 2.5625 -29.925781 3.125 -31.1875 C 3.695312 -32.445312 4.503906 -33.539062 5.546875 -34.46875 C 6.617188 -35.40625 7.867188 -36.109375 9.296875 -36.578125 C 10.734375 -37.046875 12.316406 -37.28125 14.046875 -37.28125 C 16.566406 -37.28125 18.890625 -36.796875 21.015625 -35.828125 C 23.148438 -34.859375 24.769531 -33.492188 25.875 -31.734375 L 21.671875 -29.140625 C 20.671875 -30.347656 19.515625 -31.203125 18.203125 -31.703125 C 16.890625 -32.203125 15.503906 -32.453125 14.046875 -32.453125 C 13.015625 -32.453125 12.066406 -32.28125 11.203125 -31.9375 C 10.335938 -31.59375 9.609375 -31.175781 9.015625 -30.6875 C 8.535156 -30.269531 8.179688 -29.757812 7.953125 -29.15625 C 7.734375 -28.550781 7.625 -27.90625 7.625 -27.21875 C 7.625 -26.769531 7.691406 -26.3125 7.828125 -25.84375 C 7.960938 -25.375 8.289062 -24.890625 8.8125 -24.390625 C 9.332031 -23.890625 10.09375 -23.40625 11.09375 -22.9375 C 12.09375 -22.46875 13.457031 -22.007812 15.1875 -21.5625 C 17.257812 -21.050781 19.003906 -20.488281 20.421875 -19.875 C 21.835938 -19.269531 23.03125 -18.554688 24 -17.734375 C 26.28125 -15.867188 27.421875 -13.394531 27.421875 -10.3125 Z M 27.421875 -10.3125 "/></g></g></g><g fill="#8b3c22" fill-opacity="1"><g transform="translate(566.952702, 272.821278)"><g><path d="M 10.21875 -31.890625 L 0.265625 -31.890625 L 0.265625 -36.75 L 25.609375 -36.75 L 25.609375 -31.890625 L 15.609375 -31.890625 L 15.609375 0 L 10.21875 0 Z M 10.21875 -31.890625 "/></g></g></g><g fill="#8b3c22" fill-opacity="1"><g transform="translate(594.018229, 272.821278)"><g><path d="M 29.90625 -13.015625 C 29.90625 -11.148438 29.550781 -9.394531 28.84375 -7.75 C 28.132812 -6.101562 27.175781 -4.664062 25.96875 -3.4375 C 24.757812 -2.21875 23.34375 -1.253906 21.71875 -0.546875 C 20.09375 0.160156 18.347656 0.515625 16.484375 0.515625 C 14.617188 0.515625 12.875 0.160156 11.25 -0.546875 C 9.625 -1.253906 8.207031 -2.21875 7 -3.4375 C 5.789062 -4.664062 4.832031 -6.101562 4.125 -7.75 C 3.414062 -9.394531 3.0625 -11.148438 3.0625 -13.015625 L 3.0625 -36.75 L 8.453125 -36.75 L 8.453125 -13.015625 C 8.453125 -11.910156 8.65625 -10.851562 9.0625 -9.84375 C 9.476562 -8.84375 10.050781 -7.953125 10.78125 -7.171875 C 11.507812 -6.398438 12.363281 -5.789062 13.34375 -5.34375 C 14.332031 -4.894531 15.378906 -4.671875 16.484375 -4.671875 C 17.585938 -4.671875 18.625 -4.894531 19.59375 -5.34375 C 20.5625 -5.789062 21.40625 -6.398438 22.125 -7.171875 C 22.851562 -7.953125 23.425781 -8.84375 23.84375 -9.84375 C 24.257812 -10.851562 24.46875 -11.910156 24.46875 -13.015625 L 24.46875 -36.75 L 29.90625 -36.75 Z M 29.90625 -13.015625 "/></g></g></g><g fill="#8b3c22" fill-opacity="1"><g transform="translate(626.890925, 272.821278)"><g><path d="M 3.109375 0 L 3.109375 -36.75 L 16.171875 -36.75 C 18.835938 -36.75 21.1875 -36.265625 23.21875 -35.296875 C 25.257812 -34.335938 26.960938 -33.023438 28.328125 -31.359375 C 29.691406 -29.703125 30.726562 -27.75 31.4375 -25.5 C 32.144531 -23.257812 32.5 -20.878906 32.5 -18.359375 C 32.5 -15.796875 32.128906 -13.398438 31.390625 -11.171875 C 30.648438 -8.941406 29.625 -6.992188 28.3125 -5.328125 C 27 -3.671875 25.441406 -2.367188 23.640625 -1.421875 C 21.835938 -0.472656 19.898438 0 17.828125 0 Z M 15.96875 -5.03125 C 17.9375 -5.03125 19.613281 -5.390625 21 -6.109375 C 22.382812 -6.835938 23.523438 -7.804688 24.421875 -9.015625 C 25.316406 -10.222656 25.972656 -11.640625 26.390625 -13.265625 C 26.804688 -14.890625 27.015625 -16.585938 27.015625 -18.359375 C 27.015625 -20.117188 26.804688 -21.816406 26.390625 -23.453125 C 25.972656 -25.097656 25.320312 -26.539062 24.4375 -27.78125 C 23.5625 -29.03125 22.421875 -30.023438 21.015625 -30.765625 C 19.617188 -31.515625 17.9375 -31.890625 15.96875 -31.890625 L 8.546875 -31.890625 L 8.546875 -5.03125 Z M 15.96875 -5.03125 "/></g></g></g><g fill="#8b3c22" fill-opacity="1"><g transform="translate(662.045017, 272.821278)"><g><path d="M 12.859375 -32.296875 L 12.859375 -4.453125 L 15.546875 -4.453125 L 15.546875 0 L 4.71875 0 L 4.71875 -4.453125 L 7.46875 -4.453125 L 7.46875 -32.296875 L 4.71875 -32.296875 L 4.71875 -36.75 L 15.546875 -36.75 L 15.546875 -32.296875 Z M 12.859375 -32.296875 "/></g></g></g><g fill="#8b3c22" fill-opacity="1"><g transform="translate(682.421935, 272.821278)"><g><path d="M 19.953125 -37.28125 C 22.441406 -37.28125 24.789062 -36.773438 27 -35.765625 C 29.21875 -34.765625 31.144531 -33.410156 32.78125 -31.703125 C 34.425781 -29.992188 35.734375 -27.988281 36.703125 -25.6875 C 37.671875 -23.382812 38.15625 -20.957031 38.15625 -18.40625 C 38.15625 -15.8125 37.671875 -13.375 36.703125 -11.09375 C 35.734375 -8.8125 34.421875 -6.816406 32.765625 -5.109375 C 31.109375 -3.398438 29.171875 -2.039062 26.953125 -1.03125 C 24.742188 -0.03125 22.394531 0.46875 19.90625 0.46875 C 17.414062 0.46875 15.066406 -0.03125 12.859375 -1.03125 C 10.648438 -2.039062 8.722656 -3.398438 7.078125 -5.109375 C 5.429688 -6.816406 4.132812 -8.8125 3.1875 -11.09375 C 2.238281 -13.375 1.765625 -15.8125 1.765625 -18.40625 C 1.765625 -20.957031 2.238281 -23.382812 3.1875 -25.6875 C 4.132812 -27.988281 5.4375 -29.992188 7.09375 -31.703125 C 8.757812 -33.410156 10.695312 -34.765625 12.90625 -35.765625 C 15.125 -36.773438 17.472656 -37.28125 19.953125 -37.28125 Z M 19.953125 -4.671875 C 21.722656 -4.671875 23.375 -5.023438 24.90625 -5.734375 C 26.445312 -6.441406 27.785156 -7.414062 28.921875 -8.65625 C 30.066406 -9.90625 30.96875 -11.363281 31.625 -13.03125 C 32.28125 -14.707031 32.609375 -16.5 32.609375 -18.40625 C 32.609375 -20.300781 32.28125 -22.078125 31.625 -23.734375 C 30.96875 -25.398438 30.066406 -26.851562 28.921875 -28.09375 C 27.785156 -29.34375 26.445312 -30.320312 24.90625 -31.03125 C 23.375 -31.738281 21.722656 -32.09375 19.953125 -32.09375 C 18.191406 -32.09375 16.539062 -31.738281 15 -31.03125 C 13.46875 -30.320312 12.128906 -29.34375 10.984375 -28.09375 C 9.847656 -26.851562 8.941406 -25.398438 8.265625 -23.734375 C 7.597656 -22.078125 7.265625 -20.300781 7.265625 -18.40625 C 7.265625 -16.5 7.597656 -14.707031 8.265625 -13.03125 C 8.941406 -11.363281 9.847656 -9.90625 10.984375 -8.65625 C 12.128906 -7.414062 13.46875 -6.441406 15 -5.734375 C 16.539062 -5.023438 18.191406 -4.671875 19.953125 -4.671875 Z M 19.953125 -4.671875 "/></g></g></g><g fill="#8b3c22" fill-opacity="1"><g transform="translate(722.211953, 272.821278)"><g/></g></g></svg>