<svg xmlns="http://www.w3.org/2000/svg" xmlns:xlink="http://www.w3.org/1999/xlink" width="500" zoomAndPan="magnify" viewBox="0 0 375 374.999991" height="500" preserveAspectRatio="xMidYMid meet" version="1.0"><defs><clipPath id="2fd6832fa6"><path d="M 17 57 L 363 57 L 363 293 L 17 293 Z M 17 57 " clip-rule="nonzero"/></clipPath><clipPath id="6763b4455f"><path d="M 13.539062 46.179688 L 364.71875 66.230469 L 351.167969 303.59375 L -0.0117188 283.542969 Z M 13.539062 46.179688 " clip-rule="nonzero"/></clipPath><clipPath id="f77bf29dd8"><path d="M 13.539062 46.179688 L 364.71875 66.230469 L 351.167969 303.59375 L -0.0117188 283.542969 Z M 13.539062 46.179688 " clip-rule="nonzero"/></clipPath></defs><g clip-path="url(#2fd6832fa6)"><g clip-path="url(#6763b4455f)"><g clip-path="url(#f77bf29dd8)"><path fill="#8b3c22" d="M 110.363281 289.0625 C 108.785156 288.535156 107.582031 287.9375 105.636719 286.703125 C 100.570312 283.488281 99.265625 282.972656 96.664062 283.164062 C 94.167969 283.347656 94.21875 283.375 90.21875 279.832031 C 88.859375 278.625 87.90625 278.21875 85.582031 277.847656 C 83.28125 277.476562 82.59375 277.015625 79.90625 274 C 77.609375 271.425781 76.65625 270.695312 74.214844 269.648438 C 69.773438 267.742188 65.261719 261.144531 64.808594 255.882812 L 64.675781 254.367188 L 63.785156 253.867188 C 58.894531 251.113281 56.554688 242.273438 59.269531 236.820312 L 59.636719 236.082031 L 59.128906 235.539062 C 57.902344 234.230469 57.472656 232.695312 57.28125 228.917969 C 57.089844 225.199219 56.761719 223.617188 55.988281 222.65625 C 55.738281 222.34375 55.769531 222.222656 56.441406 220.96875 C 57.933594 218.179688 58.417969 215.949219 59.0625 208.925781 C 59.90625 199.710938 60.773438 196.796875 63.40625 194.335938 L 64.464844 193.34375 L 63.207031 192.402344 C 56.578125 187.46875 52.449219 177.515625 53.484375 168.984375 L 53.683594 167.34375 L 52.929688 166.84375 C 50.179688 165.015625 49.308594 162.601562 48.40625 154.285156 C 47.613281 146.960938 47.375 146.09375 44.316406 139.160156 C 41.429688 132.609375 41.425781 132.589844 41.539062 128.292969 L 41.632812 124.789062 L 41.105469 123.5625 C 40.46875 122.085938 39.132812 120.191406 36.507812 117.027344 C 20.34375 97.5625 12.371094 66.621094 21.429688 58.507812 L 22.917969 57.171875 L 29.230469 57.640625 C 63.6875 60.203125 90.761719 72.46875 124.265625 100.6875 C 145.820312 118.84375 165.710938 141.136719 181.6875 165.042969 L 183.347656 167.527344 L 183.539062 166.992188 C 183.914062 165.945312 183.542969 165.191406 181.714844 163.304688 C 178.769531 160.261719 178.882812 158.515625 182.175781 156.117188 C 183.679688 155.019531 183.667969 155.453125 182.3125 150.914062 C 175.855469 129.28125 161.097656 104.070312 150.011719 95.746094 C 148.148438 94.347656 147.558594 94.039062 145.082031 93.167969 C 140.890625 91.695312 138.757812 89.550781 138.90625 86.957031 C 139.015625 85.015625 145.324219 88.09375 150.199219 92.46875 C 164.457031 105.273438 176.683594 126.070312 185.667969 152.804688 C 185.835938 153.3125 186.0625 153.710938 186.167969 153.695312 C 186.273438 153.679688 187.128906 153.65625 188.074219 153.640625 C 189.703125 153.621094 189.796875 153.597656 189.996094 153.164062 C 206.433594 117.214844 221.542969 97.097656 237.945312 89.320312 C 240.09375 88.304688 240.5 88.464844 240.394531 90.289062 C 240.253906 92.777344 238.707031 94.050781 233.730469 95.78125 C 227.320312 98.011719 220.535156 105.214844 209.890625 121.074219 C 202.523438 132.054688 193.734375 149.230469 192.882812 154.316406 L 192.730469 155.226562 L 194.105469 156.335938 C 197.027344 158.691406 197.046875 160.992188 194.164062 163.644531 C 191.769531 165.847656 191.230469 168.003906 193.445312 166.519531 C 194.671875 165.699219 195.722656 164.417969 197.632812 161.414062 C 204.722656 150.269531 226.523438 126.765625 241.859375 113.730469 C 281.667969 79.894531 317.648438 64.679688 355.175781 65.8125 L 359.402344 65.941406 L 360.121094 66.859375 C 363.914062 71.699219 363.335938 84.039062 358.773438 95.5625 C 355.308594 104.316406 350.582031 112.121094 340.3125 126.0625 L 336.460938 131.292969 L 336.570312 133.199219 C 336.78125 136.960938 336.003906 139.511719 332.988281 144.996094 C 329.953125 150.519531 328.972656 153.492188 328.238281 159.417969 C 327.097656 168.617188 326.40625 170.464844 323.285156 172.65625 L 322.351562 173.3125 L 322.082031 177.292969 C 321.40625 187.308594 317.792969 194.332031 311.414062 198.03125 L 310.167969 198.75 L 310.816406 199.28125 C 312.960938 201.027344 313.820312 203.75 313.878906 208.988281 C 313.972656 217.695312 313.988281 217.878906 314.929688 220.371094 C 315.21875 221.136719 315.746094 222.542969 316.105469 223.496094 C 317.355469 226.828125 317.355469 227.695312 316.128906 230.082031 C 315.335938 231.625 315.300781 231.890625 315.175781 237.042969 C 315.109375 239.65625 314.789062 240.472656 313.503906 241.3125 L 312.933594 241.683594 L 313.242188 242.507812 C 315.554688 248.652344 312.589844 257.699219 307.539062 259.921875 C 306.722656 260.28125 306.53125 260.8125 306.070312 263.980469 C 305.585938 267.296875 305.070312 268.285156 302.214844 271.398438 C 299.253906 274.628906 298.011719 275.476562 296.144531 275.542969 C 294.300781 275.609375 293.777344 275.992188 290.753906 279.476562 C 288.519531 282.046875 287.847656 282.425781 284.855469 282.796875 C 282.921875 283.039062 281.875 283.492188 279.664062 285.058594 C 277.070312 286.894531 276.511719 287.105469 274.027344 287.164062 C 271.089844 287.234375 270.277344 287.519531 264.449219 290.53125 C 260.640625 292.492188 259.71875 292.726562 257.113281 292.378906 C 252.941406 291.824219 250.554688 291.808594 246.5 292.316406 C 238.902344 293.269531 238.132812 293.144531 234.375 290.363281 C 232.21875 288.769531 231.277344 288.371094 228.722656 287.988281 C 220.996094 286.832031 213.429688 275.140625 201.5625 246.011719 C 197.816406 236.816406 195.632812 230.542969 193.503906 222.84375 L 192.578125 219.496094 L 192.40625 220.351562 C 192.308594 220.824219 191.875 226.207031 191.441406 232.320312 C 191.003906 238.433594 190.59375 243.632812 190.527344 243.875 C 190.464844 244.121094 190.285156 244.960938 190.128906 245.742188 C 189.457031 249.113281 187.898438 252.664062 186.332031 254.394531 L 185.667969 255.125 L 185.148438 254.414062 C 181.761719 249.8125 180.910156 242.507812 181.441406 222.691406 L 181.546875 218.675781 L 178.238281 227.007812 C 170.492188 246.523438 164.324219 258.847656 155.53125 272.398438 C 148.636719 283.019531 146.175781 285.378906 141.464844 285.898438 C 138.839844 286.1875 137.875 286.554688 135.332031 288.238281 C 131.777344 290.585938 130.050781 290.773438 123.835938 289.472656 C 119.304688 288.523438 117.65625 288.4375 115.707031 289.0625 C 113.980469 289.609375 112.015625 289.613281 110.363281 289.0625 Z M 126.316406 286.4375 C 127.445312 285.933594 128.121094 284.765625 127.9375 283.632812 L 127.851562 283.078125 L 126.539062 283.101562 C 123.566406 283.15625 122.453125 284.730469 124.519531 285.957031 C 125.734375 286.679688 125.757812 286.683594 126.316406 286.4375 Z M 133.296875 284.804688 C 133.589844 284.683594 134.675781 284.5 135.710938 284.398438 C 137.894531 284.1875 138.734375 283.898438 139.136719 283.214844 C 139.667969 282.316406 139.632812 282.300781 137.25 282.273438 C 133.394531 282.234375 131.742188 283.0625 132.484375 284.664062 C 132.683594 285.089844 132.632812 285.082031 133.296875 284.804688 Z M 117.550781 283.6875 C 117.933594 283.605469 117.96875 283.5 118.039062 282.210938 L 118.121094 280.820312 L 116.164062 280.390625 C 114.003906 279.914062 112.738281 280.058594 112.449219 280.8125 C 111.917969 282.210938 115.347656 284.144531 117.550781 283.6875 Z M 245.175781 289.117188 C 246.167969 288.589844 247.078125 287.269531 246.6875 286.933594 C 245.722656 286.105469 242.960938 285.441406 242.210938 285.855469 C 241.898438 286.03125 242.003906 286.800781 242.546875 288.277344 L 242.933594 289.335938 L 243.765625 289.382812 C 244.265625 289.414062 244.824219 289.308594 245.175781 289.117188 Z M 104.84375 280.097656 C 104.957031 278.140625 103.070312 276.671875 100.234375 276.511719 C 98.738281 276.425781 98.699219 276.5 99.492188 277.929688 C 100.574219 279.878906 104.761719 281.574219 104.84375 280.097656 Z M 237.945312 286.589844 C 237.351562 285.257812 236.3125 284.820312 233.328125 284.648438 C 230.910156 284.511719 230.769531 284.574219 231.40625 285.484375 C 231.898438 286.1875 232.964844 286.601562 235.101562 286.925781 C 236.152344 287.085938 237.242188 287.292969 237.527344 287.386719 C 238.152344 287.597656 238.285156 287.34375 237.945312 286.589844 Z M 132.410156 280.324219 C 133.492188 279.886719 133.058594 275.828125 131.914062 275.652344 C 128.871094 275.1875 125.167969 277.773438 126.78125 279.234375 C 127.96875 280.3125 130.988281 280.894531 132.410156 280.324219 Z M 255.699219 286.785156 C 257.324219 286.398438 258.582031 284.546875 257.609375 283.980469 C 255.300781 282.636719 251.191406 284.175781 251.820312 286.144531 C 252.007812 286.726562 254.335938 287.109375 255.699219 286.785156 Z M 122.515625 277.097656 C 122.4375 273.542969 116.273438 271.054688 113.6875 273.535156 C 113.148438 274.050781 113.160156 274.078125 114.269531 274.976562 C 116.429688 276.71875 118.589844 277.5625 121.09375 277.648438 L 122.527344 277.695312 Z M 143.566406 278.070312 C 152.171875 276.980469 162.132812 256.183594 164.539062 234.292969 C 165.203125 228.214844 165.050781 228.035156 162.558594 231.976562 C 161.605469 233.480469 158.554688 238.0625 155.78125 242.160156 C 153.003906 246.257812 150.171875 250.46875 149.488281 251.519531 C 148.804688 252.570312 147.296875 254.835938 146.136719 256.554688 C 140.128906 265.441406 137.109375 275.148438 139.617188 277.484375 C 140.132812 277.964844 142.101562 278.257812 143.566406 278.070312 Z M 92.421875 274.683594 C 93.191406 274.296875 92.355469 271.601562 91.234375 270.851562 C 88.59375 269.09375 84.902344 271.15625 87.214844 273.097656 C 88.96875 274.570312 91.257812 275.269531 92.421875 274.683594 Z M 242.378906 282.617188 C 244.355469 281.796875 244.46875 281.703125 244.261719 281.039062 C 243.308594 278.007812 237.71875 277.425781 237.164062 280.296875 C 236.667969 282.867188 239.128906 283.960938 242.378906 282.617188 Z M 267.933594 284.1875 C 270.472656 283.679688 272.601562 280.769531 270.515625 280.65625 C 267.757812 280.507812 265.988281 281.53125 265.605469 283.492188 L 265.441406 284.324219 L 266.144531 284.363281 C 266.535156 284.386719 267.339844 284.308594 267.933594 284.1875 Z M 107.960938 274.027344 C 109.828125 273.09375 109.980469 270.851562 108.234375 269.933594 C 105.367188 268.429688 100.953125 270.898438 102.839844 272.953125 C 104.007812 274.222656 106.519531 274.746094 107.960938 274.027344 Z M 229.269531 280.660156 C 232.855469 279.269531 232.636719 272.761719 228.726562 264.515625 C 225.851562 258.457031 223.652344 254.71875 216.667969 244.019531 C 213.421875 239.042969 209.550781 232.59375 208.964844 231.183594 C 206.695312 225.71875 207.925781 241.644531 210.503906 251.136719 C 216.1875 272.035156 223.167969 283.019531 229.265625 280.660156 Z M 251.128906 280.554688 C 256.480469 279.984375 259.351562 276.328125 254.660156 276.058594 C 251.0625 275.855469 248.449219 277.367188 247.660156 280.113281 L 247.519531 280.601562 L 248.554688 280.660156 C 249.121094 280.691406 250.28125 280.644531 251.128906 280.554688 Z M 130.484375 270.679688 C 133.714844 269.65625 136.40625 267.277344 139.960938 262.304688 C 140.703125 261.261719 142.207031 259.167969 143.300781 257.644531 C 146.171875 253.65625 147.636719 251.492188 152.28125 244.390625 C 156.164062 238.453125 157.414062 236.632812 163.652344 227.851562 C 169.476562 219.65625 172.367188 214.605469 174.695312 208.578125 C 176.785156 203.164062 178.28125 195.632812 177.375 195.078125 C 176.824219 194.746094 176.757812 194.792969 175.628906 196.296875 C 170.863281 202.640625 163.929688 208.234375 150.492188 216.578125 C 143.902344 220.667969 140.304688 223.070312 140.203125 223.445312 C 137.648438 232.929688 133.878906 241.242188 126.828125 252.925781 C 122.402344 260.265625 121.453125 266.355469 124.136719 270.203125 C 124.710938 271.027344 128.492188 271.3125 130.488281 270.679688 Z M 280.511719 279.238281 C 282.945312 278.984375 284.347656 277.644531 284.058594 275.855469 C 283.636719 273.226562 278.34375 275.347656 277.925781 278.3125 L 277.789062 279.269531 L 278.574219 279.3125 C 279.007812 279.335938 279.878906 279.300781 280.511719 279.234375 Z M 265.773438 278.199219 C 268.136719 277.746094 268.820312 275.414062 267 274.03125 C 265.066406 272.558594 261.421875 273.574219 261.308594 275.617188 C 261.1875 277.707031 262.96875 278.738281 265.773438 278.199219 Z M 96.910156 268.289062 C 97.558594 268.222656 97.574219 268.203125 97.511719 267.5625 C 97.34375 265.722656 96.394531 265.074219 93.523438 264.820312 L 91.507812 264.644531 L 91.476562 265.207031 C 91.363281 267.214844 93.835938 268.621094 96.910156 268.289062 Z M 82.246094 267.019531 C 83.585938 266.480469 81.574219 263.136719 79.390625 262.269531 C 77.847656 261.65625 76.519531 262.15625 75.839844 263.605469 C 74.898438 265.621094 79.554688 268.101562 82.246094 267.019531 Z M 245.753906 273.800781 C 247.117188 273.484375 248.066406 271.140625 248.269531 267.589844 C 248.511719 263.320312 247.511719 260.363281 243.265625 252.824219 C 238.824219 244.933594 236.1875 238.203125 232.878906 226.320312 L 232.445312 224.773438 L 231.230469 223.992188 C 216.414062 214.453125 204.042969 204.320312 198.578125 197.246094 C 197.378906 195.699219 197.097656 195.5 196.945312 196.113281 C 196.898438 196.296875 196.726562 196.53125 196.566406 196.636719 C 196.003906 197 197.207031 203.105469 198.792969 207.953125 C 201.210938 215.347656 204.660156 221.863281 213.1875 235.128906 C 217.742188 242.214844 219.445312 245.027344 222.257812 250.097656 C 233.359375 270.089844 238.65625 275.4375 245.753906 273.800781 Z M 111.515625 264.191406 C 118.605469 263.71875 121.058594 261.453125 127.484375 249.453125 C 129 246.621094 130.980469 242.972656 131.882812 241.351562 C 135.753906 234.386719 137.386719 230.207031 137.929688 225.863281 L 138.152344 224.09375 L 137.445312 224.148438 C 135.507812 224.304688 124.03125 229.472656 117.347656 233.199219 C 102.035156 241.738281 94.386719 251.046875 97.152344 257.789062 C 98.777344 261.742188 105.207031 264.609375 111.515625 264.191406 Z M 276.0625 272.5 C 279.441406 272.148438 280.472656 269.34375 277.285156 269.164062 C 275.277344 269.046875 273.113281 270.558594 273.023438 272.140625 C 272.996094 272.585938 274.039062 272.710938 276.0625 272.5 Z M 86.78125 261.144531 C 87.273438 260.960938 87.707031 260.789062 87.738281 260.765625 C 88.320312 260.320312 85.804688 258.0625 84.644531 257.988281 C 84.257812 257.960938 84.480469 259.351562 85.03125 260.363281 C 85.710938 261.621094 85.609375 261.578125 86.78125 261.144531 Z M 292.558594 271.945312 C 294.683594 271.117188 296.011719 269.445312 295.253906 268.550781 C 293.09375 266.003906 288.933594 267.601562 288.507812 271.148438 C 288.359375 272.363281 290.441406 272.773438 292.558594 271.945312 Z M 71.191406 258.152344 C 72.019531 254.683594 71.378906 251.730469 69.671875 251.113281 C 68.789062 250.796875 68.144531 255.902344 68.839844 257.714844 C 69.617188 259.742188 70.761719 259.953125 71.191406 258.148438 Z M 264.636719 267.777344 C 270.867188 266.902344 274.957031 262.871094 274.550781 258.011719 C 273.761719 248.640625 261.003906 237.90625 238.675781 227.832031 L 235.617188 226.449219 L 235.136719 226.765625 C 233.03125 228.152344 243.695312 253.597656 249.855469 261.882812 C 253.542969 266.84375 258.167969 268.6875 264.636719 267.777344 Z M 78.335938 253.613281 C 78.875 252.246094 76.308594 248.726562 75.378906 249.558594 C 75.164062 249.75 75.492188 252.511719 75.796875 253.070312 C 76.398438 254.179688 77.976562 254.519531 78.335938 253.613281 Z M 285.605469 265.84375 L 286.519531 265.703125 L 286.488281 264.320312 C 286.449219 262.675781 286.503906 262.792969 285.851562 263 C 285.078125 263.242188 283.144531 265.082031 283.113281 265.601562 C 283.097656 265.894531 284.449219 266.023438 285.605469 265.84375 Z M 301.835938 264.398438 C 303.824219 261.753906 303.441406 256.804688 301.238281 256.675781 C 300.964844 256.660156 300.425781 258.476562 299.792969 261.546875 C 299.371094 263.59375 300.871094 265.6875 301.835938 264.398438 Z M 91.519531 250.039062 C 93.933594 249.097656 96.210938 247.273438 100.792969 242.621094 C 105.640625 237.703125 108.6875 235.617188 117.816406 230.980469 C 122.359375 228.675781 122.074219 228.828125 121.976562 228.753906 C 121.78125 228.601562 114.027344 228.53125 111.648438 228.65625 C 96.089844 229.480469 85.488281 233.335938 82.875 239.128906 C 80.152344 245.15625 85.792969 252.277344 91.519531 250.039062 Z M 294.84375 259.136719 C 296.117188 258.378906 296.839844 256.375 296.203125 255.347656 C 295.828125 254.742188 295.582031 254.808594 294.582031 255.757812 C 292.371094 257.867188 292.574219 260.484375 294.84375 259.136719 Z M 66.808594 243.402344 C 66.828125 243.070312 66.980469 242.511719 67.148438 242.167969 C 67.890625 240.644531 67.136719 239.484375 65.363281 239.425781 C 64.96875 239.410156 64.03125 241.632812 63.96875 242.722656 L 63.90625 243.84375 L 66.773438 244.007812 Z M 284.515625 255.066406 C 288.0625 254.082031 290.96875 248.710938 289.871094 245.183594 C 287.722656 238.269531 270.925781 231.761719 255.175781 231.742188 C 251.164062 231.734375 251.191406 231.714844 253.429688 233.066406 C 258.726562 236.261719 265.386719 241.457031 270.113281 246.074219 C 277.898438 253.683594 281.472656 255.914062 284.515625 255.066406 Z M 165.164062 248.15625 C 165.203125 247.5 167.984375 242.101562 171.542969 235.773438 C 180.378906 220.074219 182.671875 212.847656 182.1875 202.261719 C 182.046875 199.179688 181.320312 198.296875 180.589844 200.324219 C 179.59375 203.097656 177.574219 207.226562 174.363281 213.078125 C 166.339844 227.691406 164.015625 235.691406 164.710938 246.316406 C 164.816406 247.945312 165.109375 249.128906 165.164062 248.15625 Z M 75.449219 242.5625 C 75.875 242.324219 75.335938 240.007812 74.679688 239.273438 C 73.917969 238.421875 73.394531 238.46875 73 239.421875 C 72.238281 241.28125 73.910156 243.421875 75.449219 242.5625 Z M 207.871094 246.710938 C 208.109375 234.921875 205.875 226.746094 198.214844 211.382812 C 196.769531 208.476562 194.894531 204.566406 194.054688 202.683594 L 192.527344 199.269531 L 192.316406 200.335938 C 190.320312 210.339844 193.210938 221.667969 202.113281 238.726562 C 204.179688 242.691406 206.265625 246.820312 206.75 247.910156 C 207.855469 250.40625 207.792969 250.472656 207.871094 246.710938 Z M 307.617188 249.523438 C 308.71875 249.050781 308.328125 247.082031 306.878906 245.769531 C 305.820312 244.816406 304.851562 245.785156 304.902344 247.757812 C 304.945312 249.636719 305.90625 250.261719 307.617188 249.523438 Z M 298.59375 247.742188 C 298.921875 247.421875 299.054688 246.675781 299.09375 244.96875 L 299.121094 243.917969 L 298.617188 244.011719 C 297.507812 244.222656 296.886719 245.195312 296.789062 246.875 L 296.730469 247.957031 L 297.507812 248.003906 C 298.027344 248.03125 298.390625 247.945312 298.59375 247.742188 Z M 66.710938 233.886719 C 67.128906 232.539062 66.199219 230.730469 64.65625 229.882812 C 63.394531 229.1875 62.796875 230.734375 63.339844 233.304688 L 63.585938 234.480469 L 65.046875 234.511719 L 66.507812 234.546875 Z M 74.609375 231.664062 C 75.898438 230.710938 73.726562 228.210938 71.972656 228.628906 C 70.863281 228.890625 70.792969 229.105469 71.453125 230.214844 C 72.382812 231.78125 73.65625 232.367188 74.609375 231.664062 Z M 87.878906 232.179688 C 101.929688 230.523438 115.414062 219.382812 116.445312 208.582031 L 116.671875 206.234375 L 115.75 206.09375 C 115.039062 205.984375 114.472656 206.050781 113.304688 206.367188 C 111.238281 206.933594 108.847656 207.234375 102.53125 207.722656 C 88.261719 208.824219 85.476562 209.605469 80.726562 213.839844 C 70.414062 223.042969 74.589844 233.75 87.878906 232.183594 Z M 308.628906 239.96875 C 309.992188 238.742188 310.011719 235.578125 308.660156 235.5 C 308.21875 235.476562 306.183594 237.324219 305.921875 237.988281 C 305.09375 240.085938 306.972656 241.460938 308.628906 239.96875 Z M 71.4375 224.644531 C 72.273438 222.621094 71.40625 218.570312 70.472656 220.148438 C 70.34375 220.363281 69.824219 220.886719 69.320312 221.308594 C 67.835938 222.546875 67.996094 223.570312 69.867188 224.738281 C 70.992188 225.441406 71.109375 225.4375 71.4375 224.644531 Z M 292.144531 237.203125 C 300.644531 234.941406 300.121094 225.101562 291.09375 217.46875 C 287.039062 214.039062 283.761719 213.164062 271.152344 212.132812 C 263.582031 211.511719 262.339844 211.304688 259.617188 210.191406 C 256.035156 208.730469 255.722656 210.785156 258.515625 217.433594 C 262.535156 227.007812 271.945312 233.925781 285.292969 237.117188 C 286.308594 237.359375 291.320312 237.421875 292.144531 237.203125 Z M 116.453125 226.695312 C 123.648438 225.871094 130.578125 223.59375 139.535156 219.117188 C 162.875 207.449219 170.898438 200.558594 173.414062 190.027344 C 173.808594 188.371094 171.9375 188.621094 165.019531 191.160156 C 153.121094 195.523438 151.355469 195.71875 142.902344 193.628906 C 129.675781 190.359375 125.410156 193.285156 118.265625 210.53125 C 114.363281 219.941406 112.574219 223.203125 109.792969 225.960938 L 108.894531 226.855469 L 111.585938 226.898438 C 113.070312 226.925781 115.261719 226.832031 116.457031 226.695312 Z M 300.1875 237.074219 C 301.316406 236.425781 301.921875 234.335938 301.058594 234.066406 C 299.683594 233.636719 297.761719 235.015625 298.046875 236.222656 C 298.339844 237.46875 299.03125 237.742188 300.1875 237.074219 Z M 63.65625 223.273438 C 64.101562 223.03125 64.15625 222.613281 63.828125 221.882812 C 63.101562 220.257812 60.742188 220.789062 60.636719 222.601562 C 60.59375 223.394531 62.613281 223.84375 63.65625 223.273438 Z M 263.726562 230.460938 C 263.734375 230.019531 262.535156 227.789062 261.539062 226.382812 C 259.117188 222.972656 258.363281 221.386719 255.417969 213.527344 C 252.550781 205.867188 250.917969 202.671875 248.480469 199.929688 C 244.582031 195.554688 241.515625 194.875 231.5 196.183594 C 222.253906 197.390625 220.859375 197.136719 209.570312 192.183594 C 205.191406 190.265625 201.738281 189.21875 201.503906 189.742188 C 199.289062 194.65625 205.800781 203.359375 217.675781 211.351562 C 234.925781 222.964844 245.742188 228.160156 256.648438 230.074219 C 257.726562 230.265625 263.726562 230.59375 263.726562 230.460938 Z M 64.035156 216.992188 C 64.933594 215.691406 64.5 213.082031 63.246094 212.25 C 62.542969 211.78125 62.558594 211.761719 62.140625 213.535156 C 61.425781 216.539062 62.71875 218.894531 64.035156 216.992188 Z M 303.09375 230.582031 C 304.773438 229.613281 304.703125 227.035156 302.960938 225.816406 C 301.730469 224.957031 301.679688 225.074219 301.332031 229.59375 C 301.222656 231.003906 301.800781 231.328125 303.09375 230.582031 Z M 71.554688 217.027344 C 72.898438 216.425781 73.222656 214.761719 72.5 212.152344 C 71.9375 210.117188 71.007812 209.921875 69.609375 211.554688 C 67.457031 214.066406 68.929688 218.199219 71.554688 217.027344 Z M 311.457031 229.316406 C 312.378906 228.941406 312.160156 227.734375 311.054688 227.082031 C 310.757812 226.90625 310.488281 226.789062 310.457031 226.816406 C 308.34375 228.722656 308.988281 230.328125 311.457031 229.316406 Z M 311.003906 223.039062 C 312.4375 221.519531 311.632812 218.035156 309.820312 217.933594 C 309.269531 217.898438 308.570312 222.140625 309.023438 222.777344 C 309.617188 223.617188 310.367188 223.714844 311.003906 223.039062 Z M 304.171875 222.421875 C 305.417969 220.46875 304.160156 216.171875 302.308594 216.0625 C 301.296875 216.003906 300.359375 219.53125 300.835938 221.613281 L 301.078125 222.652344 L 302.5 222.734375 C 303.789062 222.804688 303.949219 222.777344 304.171875 222.421875 Z M 68.523438 205.957031 C 72.464844 204.324219 73.859375 202.804688 74.449219 199.492188 L 74.617188 198.550781 L 73.800781 198.132812 C 70.089844 196.230469 66.125 199.625 65.457031 205.273438 L 65.242188 207.082031 L 65.769531 206.980469 C 66.058594 206.925781 67.296875 206.464844 68.523438 205.957031 Z M 98.71875 206.417969 C 107.46875 206.402344 114.753906 205.527344 118.019531 204.097656 C 120.289062 203.101562 121.683594 201.488281 123.734375 197.46875 C 125.488281 194.03125 127.332031 191.714844 128.304688 191.722656 C 128.890625 191.726562 127.59375 191.332031 125.507812 190.875 C 100.429688 185.378906 81.605469 190.71875 82.378906 203.117188 C 82.511719 205.226562 88.488281 206.433594 98.71875 206.417969 Z M 308.679688 211.882812 C 309.023438 205.449219 302.71875 200.5 299.78125 204.894531 L 299.292969 205.632812 L 300.03125 206.804688 C 301.621094 209.328125 303.898438 211.269531 306.539062 212.363281 C 308.621094 213.222656 308.609375 213.226562 308.679688 211.882812 Z M 286.328125 211.007812 C 290.542969 210.378906 292.316406 209.210938 292.222656 207.117188 C 291.753906 196.816406 278.910156 191.433594 258.226562 192.871094 C 252.34375 193.277344 244.226562 194.570312 246.671875 194.710938 C 247.371094 194.75 248.523438 196.472656 250.234375 200.042969 C 253.539062 206.9375 254.976562 207.882812 264.03125 209.109375 C 265.949219 209.367188 269.402344 209.847656 271.710938 210.179688 C 277.671875 211.03125 277.535156 211.015625 281.191406 211.152344 C 283.65625 211.246094 284.980469 211.210938 286.328125 211.007812 Z M 151.886719 192.277344 C 159.519531 191.800781 167.3125 189.796875 168.0625 188.121094 C 168.507812 187.128906 168.265625 187.003906 166.621094 187.382812 C 160.773438 188.71875 153.5 189.027344 138.960938 188.558594 C 128.511719 188.21875 124.855469 188.152344 124.847656 188.292969 C 124.808594 188.96875 133.71875 191.226562 138.953125 191.867188 C 141.292969 192.15625 149.625 192.417969 151.886719 192.277344 Z M 232.578125 194.269531 C 238.519531 194.0625 250.046875 192.4375 250.082031 191.804688 C 250.089844 191.722656 241.394531 191.183594 230.761719 190.601562 C 213.308594 189.652344 211.144531 189.503906 208.503906 189.066406 C 206.898438 188.800781 205.550781 188.605469 205.515625 188.636719 C 205.386719 188.753906 209.242188 190.777344 210.550781 191.28125 C 216.121094 193.425781 224.414062 194.550781 232.574219 194.269531 Z M 92.105469 181.804688 C 93.847656 181.558594 95.953125 181.015625 99.960938 179.769531 C 114.308594 175.316406 120.636719 175.128906 138.269531 178.625 C 147.71875 180.5 150.820312 181.023438 156.09375 181.636719 C 166.214844 182.804688 174.425781 181.648438 178.667969 178.453125 L 179.316406 177.964844 L 178.011719 177.769531 C 172.230469 176.898438 167.035156 174.214844 158.859375 167.875 C 152.859375 163.230469 150.246094 161.558594 143.832031 158.28125 C 130.664062 151.546875 126.75 150.933594 114.835938 153.714844 C 108.070312 155.296875 106.082031 155.519531 98.285156 155.558594 C 90.109375 155.597656 87.328125 155.890625 84.398438 157.015625 C 71.105469 162.132812 77.851562 183.828125 92.105469 181.808594 Z M 67.226562 175.546875 C 68.996094 174.789062 70.039062 172.707031 69.320312 171.378906 C 67.265625 167.582031 61.414062 167.714844 61.199219 171.5625 C 61.023438 174.71875 64.222656 176.835938 67.226562 175.546875 Z M 219.621094 183.1875 C 223.894531 182.921875 228.722656 182.359375 236.890625 181.179688 C 249.191406 179.40625 251.792969 179.167969 256.105469 179.414062 C 262.316406 179.765625 269.953125 181.570312 277.21875 184.398438 C 286.128906 187.863281 290.089844 187.46875 294.460938 182.679688 C 301.105469 175.40625 299.652344 165.550781 291.46875 162.378906 C 287.96875 161.023438 285.574219 160.621094 276.828125 159.90625 C 269.035156 159.273438 268 159.097656 261.320312 157.285156 C 246.574219 153.277344 241.863281 154.4375 222.71875 166.773438 C 213.054688 173 211.101562 173.964844 204.382812 175.839844 C 200.429688 176.941406 197.65625 177.964844 196.664062 178.683594 L 196.195312 179.023438 L 197.417969 179.664062 C 202.753906 182.453125 210.832031 183.734375 219.621094 183.1875 Z M 180.464844 173.96875 C 180.152344 166.464844 175.535156 160.042969 156.289062 140.332031 C 154.140625 138.132812 149.792969 133.46875 146.625 129.972656 C 130.25 111.878906 122.53125 106.859375 108.359375 105.105469 C 104.898438 104.675781 95.980469 104.734375 95.425781 105.191406 C 95.390625 105.222656 95.832031 105.859375 96.40625 106.613281 C 100.644531 112.140625 103.710938 118.738281 104.585938 124.210938 L 104.753906 125.269531 L 107.28125 126.957031 C 113.800781 131.3125 115.238281 132.320312 116.898438 133.707031 C 120.550781 136.757812 122.839844 139.628906 124.078125 142.722656 C 125.800781 147.023438 125.964844 147.359375 126.835938 148.335938 C 128.128906 149.785156 129.722656 150.640625 134.976562 152.703125 C 138.628906 154.136719 140.4375 154.96875 142.984375 156.367188 C 147.917969 159.082031 155.6875 163.699219 158.625 165.664062 C 166.285156 170.78125 168.660156 172.171875 172.0625 173.53125 C 174.664062 174.566406 176.480469 175.007812 178.75 175.160156 L 180.515625 175.277344 L 180.460938 173.96875 Z M 199.09375 175.410156 C 203.652344 174.773438 207.550781 173.015625 215.171875 168.144531 C 222.378906 163.539062 224.066406 162.6875 235.925781 157.65625 C 248.902344 152.148438 250.203125 151.496094 250.644531 150.257812 C 253.109375 143.308594 260.957031 135.734375 270.847656 130.753906 C 272.71875 129.8125 272.703125 129.828125 273.371094 127.671875 C 275.375 121.1875 278.660156 115 281.554688 112.253906 C 284.007812 109.925781 283.613281 109.625 277.667969 109.304688 C 258.046875 108.242188 248.355469 113.230469 227.484375 135.128906 C 221.246094 141.675781 218.921875 144.003906 214.609375 148.046875 C 207.269531 154.929688 205 157.214844 202.351562 160.398438 C 198.308594 165.253906 195.980469 169.859375 195.378906 174.1875 L 195.171875 175.699219 L 196.230469 175.679688 C 196.8125 175.671875 198.101562 175.550781 199.09375 175.414062 Z M 311.503906 181.582031 C 315.859375 180.320312 314.894531 174.042969 310.421875 174.507812 C 307.269531 174.832031 305.359375 177.238281 306.386719 179.574219 C 307.121094 181.246094 309.480469 182.167969 311.503906 181.582031 Z M 59.527344 158.25 C 59.613281 156.664062 58.761719 155.675781 57.015625 155.332031 L 56.171875 155.167969 L 56.25 155.875 C 56.441406 157.589844 57.226562 158.78125 58.402344 159.140625 C 59.371094 159.441406 59.46875 159.363281 59.527344 158.25 Z M 71.402344 158.585938 C 71.910156 158.429688 72.554688 158.089844 72.832031 157.832031 L 73.335938 157.367188 L 73.351562 155.164062 L 73.367188 152.964844 L 72.414062 152.910156 C 69.40625 152.738281 66.714844 154.027344 65.417969 156.261719 L 64.910156 157.132812 L 65.453125 157.644531 C 66.765625 158.882812 69.1875 159.265625 71.402344 158.585938 Z M 88.820312 154.847656 C 90.246094 154.6875 93.746094 154.160156 96.59375 153.675781 C 99.445312 153.191406 103.570312 152.566406 105.761719 152.289062 C 125.480469 149.804688 127.664062 145.285156 114.34375 134.527344 C 109.136719 130.324219 101.863281 129.589844 85.515625 131.609375 C 75.648438 132.832031 71.921875 137.410156 73.683594 146.15625 C 75.207031 153.738281 79.039062 155.9375 88.820312 154.847656 Z M 308.378906 164.671875 C 309.914062 164.515625 311.160156 162.980469 310.664062 161.859375 C 309.261719 158.671875 302.636719 157.257812 302.472656 160.113281 C 302.332031 162.59375 304.929688 165.035156 307.425781 164.769531 C 307.574219 164.753906 308.003906 164.710938 308.378906 164.671875 Z M 318.066406 165.246094 C 319.171875 164.847656 319.582031 164.265625 319.742188 162.878906 C 319.90625 161.421875 319.8125 161.363281 318.277344 161.976562 C 315.859375 162.9375 315.65625 166.117188 318.066406 165.246094 Z M 55.914062 146.664062 C 55.824219 144.78125 54.921875 143.457031 52.789062 142.09375 C 51.542969 141.296875 51.527344 141.300781 51.613281 142.320312 C 51.839844 145.082031 52.855469 146.6875 54.839844 147.417969 C 55.875 147.800781 55.960938 147.738281 55.914062 146.664062 Z M 66.910156 147.8125 C 71.617188 146.449219 69.308594 140.496094 63.957031 140.1875 C 61.292969 140.035156 59.320312 141.464844 59.195312 143.632812 C 59.03125 146.519531 63.335938 148.851562 66.910156 147.8125 Z M 295.167969 159.957031 C 303.527344 158.679688 306.441406 142.894531 299.066406 138.84375 C 292.859375 135.4375 271.765625 133.1875 266.53125 135.378906 C 264.046875 136.421875 258.914062 140.4375 256.632812 143.128906 C 250.988281 149.796875 254.414062 153.203125 269.839844 156.265625 C 271.992188 156.695312 275.675781 157.441406 278.023438 157.929688 C 286.914062 159.773438 292.25 160.402344 295.167969 159.957031 Z M 312.917969 154.019531 C 319.09375 153.058594 319.59375 146.460938 313.515625 146.125 C 309.789062 145.917969 306.707031 148.832031 307.207031 152.089844 C 307.421875 153.476562 310.253906 154.433594 312.917969 154.019531 Z M 323.480469 152.945312 C 324.875 151.695312 325.316406 150.207031 324.738281 148.699219 L 324.460938 147.972656 L 324.035156 148.578125 C 323.804688 148.914062 323.195312 149.5 322.683594 149.882812 C 321.347656 150.882812 320.296875 153.316406 320.90625 153.996094 C 321.1875 154.316406 322.59375 153.742188 323.480469 152.945312 Z M 61.878906 133.085938 C 63.152344 132.523438 64.15625 131.144531 64.066406 130.078125 C 63.933594 128.5 56.542969 128.230469 56.230469 129.789062 C 55.714844 132.363281 59.074219 134.324219 61.878906 133.085938 Z M 49.582031 131.90625 C 50.789062 131.367188 51.285156 128.839844 50.261719 128.433594 C 48.875 127.886719 47.511719 128.949219 47.554688 130.542969 C 47.59375 132.023438 48.28125 132.488281 49.582031 131.90625 Z M 86.765625 130.328125 C 89.242188 130.167969 91.117188 129.746094 95.976562 128.246094 C 98.5 127.464844 101.113281 126.714844 101.785156 126.578125 C 103.117188 126.304688 103.136719 126.273438 102.792969 125.105469 C 102.664062 124.667969 102.207031 122.730469 101.78125 120.804688 C 100.507812 115.078125 99.765625 113.027344 98.289062 111.140625 C 92.546875 103.816406 76.222656 103.730469 72.230469 111.011719 C 66.703125 121.078125 74.265625 131.128906 86.765625 130.328125 Z M 319.691406 139.011719 C 320.058594 138.570312 320.554688 137.972656 320.792969 137.683594 C 322 136.226562 320.117188 134.59375 317.429688 134.773438 C 312.238281 135.113281 312.523438 139.347656 317.761719 139.722656 L 319.027344 139.8125 Z M 329.644531 137.675781 C 329.769531 135.195312 329.394531 134.765625 327.570312 135.289062 L 326.867188 135.492188 L 326.882812 136.527344 C 326.902344 138.046875 327.5625 138.761719 329.089844 138.921875 L 329.582031 138.976562 Z M 60.390625 122.441406 C 66.488281 120.675781 65.273438 111.199219 58.902344 110.835938 C 54.363281 110.578125 51.125 115.246094 52.90625 119.480469 C 53.957031 121.976562 57.355469 123.320312 60.390625 122.441406 Z M 297.65625 135.464844 C 303.863281 134.164062 307.40625 129.550781 307.40625 122.773438 C 307.40625 113.566406 301.476562 109.378906 290.773438 111.023438 C 281.898438 112.386719 278.660156 115.304688 276.539062 123.84375 C 275.554688 127.8125 274.996094 129.96875 274.894531 130.195312 C 274.832031 130.339844 275.261719 130.539062 276.183594 130.796875 C 276.941406 131.011719 279.628906 131.90625 282.152344 132.78125 C 284.675781 133.660156 287.582031 134.582031 288.605469 134.832031 C 289.628906 135.085938 290.667969 135.339844 290.914062 135.398438 C 291.90625 135.640625 296.589844 135.6875 297.65625 135.464844 Z M 48.554688 117.238281 C 50.734375 116.261719 50.476562 113.683594 48.1875 113.554688 C 46.375 113.453125 44.691406 115.117188 44.996094 116.707031 C 45.164062 117.597656 47.109375 117.886719 48.554688 117.238281 Z M 320.292969 128.648438 C 327.71875 127.511719 327.25 117.480469 319.757812 117.113281 C 314.257812 116.839844 311.285156 125.105469 315.878906 127.886719 C 317.128906 128.644531 318.628906 128.902344 320.292969 128.648438 Z M 41.140625 111.628906 C 42.125 109.597656 40.78125 107.203125 38.578125 107.070312 C 37.195312 106.984375 36.566406 108.683594 37.316406 110.484375 C 38.015625 112.167969 40.511719 112.914062 41.140625 111.628906 Z M 332.746094 124.375 C 333.328125 124.210938 333.34375 124.183594 333.308594 123.335938 C 333.199219 120.460938 329.414062 119.238281 328.003906 121.621094 L 327.648438 122.21875 L 328.207031 122.753906 C 329.640625 124.121094 331.414062 124.757812 332.746094 124.375 Z M 49.949219 107.238281 C 50.441406 106.710938 50.410156 104.738281 49.894531 103.511719 L 49.4375 102.433594 L 48.039062 102.414062 C 45.71875 102.386719 45.417969 103.066406 46.4375 106.03125 L 46.894531 107.363281 L 48.292969 107.441406 C 49.371094 107.503906 49.746094 107.457031 49.949219 107.238281 Z M 61.777344 105.34375 C 68.769531 103.976562 70.617188 96.058594 64.375 94.207031 C 60.554688 93.074219 50.726562 94.5 49.792969 96.320312 C 47.09375 101.589844 54.078125 106.851562 61.777344 105.34375 Z M 339.261719 119.316406 C 341.054688 118.738281 341.925781 116.953125 341.367188 115 L 341.199219 114.40625 L 340.074219 114.414062 C 338.15625 114.425781 336.984375 115.535156 336.875 117.4375 C 336.765625 119.347656 337.464844 119.894531 339.261719 119.316406 Z M 39.925781 100.386719 C 43.417969 99.414062 43.734375 95.929688 40.496094 94.109375 C 36.96875 92.128906 32.289062 94.929688 33.628906 98.222656 C 34.359375 100.023438 37.433594 101.078125 39.925781 100.386719 Z M 91.660156 101.253906 C 93.34375 100.929688 93.425781 100.859375 93.214844 99.960938 C 92.089844 95.257812 82.347656 93.21875 78.1875 96.820312 C 77.265625 97.621094 77.277344 97.652344 78.644531 98.441406 C 83.21875 101.070312 87.660156 102.03125 91.660156 101.253906 Z M 119.5 102.347656 C 119.511719 102.144531 117.273438 99.792969 115.679688 98.332031 C 111.304688 94.324219 105.789062 91.496094 99.84375 90.222656 C 97.625 89.746094 97.617188 89.808594 99.601562 91.816406 C 104.011719 96.285156 108.34375 99.230469 113.1875 101.050781 C 115.882812 102.0625 119.472656 102.800781 119.5 102.347656 Z M 332.113281 113.449219 C 332.90625 110.929688 332.648438 109.179688 331.484375 109.148438 C 329.113281 109.085938 327.675781 111.109375 328.53125 113.316406 L 328.832031 114.097656 L 331.859375 114.273438 Z M 322.664062 111.851562 C 326.511719 111.171875 329.042969 108.84375 329.746094 105.328125 L 330.03125 103.894531 L 329.476562 103.253906 C 327.429688 100.886719 320.296875 99.210938 316.152344 100.121094 C 305.933594 102.367188 312.222656 113.691406 322.664062 111.851562 Z M 263.566406 105.507812 C 269.257812 103.859375 274.464844 100.945312 279.347656 96.667969 C 282.285156 94.09375 282.296875 94.136719 278.902344 94.777344 C 270.410156 96.390625 261.351562 101.796875 259.5 106.355469 C 259.421875 106.554688 261.300781 106.160156 263.566406 105.503906 Z M 31.972656 91.566406 C 33.175781 91.304688 33.839844 90.660156 33.777344 89.8125 C 33.550781 86.851562 28.761719 84.902344 27.390625 87.214844 C 25.945312 89.660156 28.699219 92.277344 31.972656 91.566406 Z M 294.105469 106.179688 C 296.789062 105.65625 299.230469 104.542969 300.75 103.15625 L 301.484375 102.484375 L 300.640625 101.875 C 296.027344 98.5625 287.101562 100.082031 285.949219 104.378906 C 285.554688 105.855469 290.355469 106.914062 294.105469 106.179688 Z M 78.171875 93.046875 C 79.675781 92.847656 81.933594 92.019531 81.953125 91.664062 C 81.996094 90.90625 80.414062 89.289062 78.847656 88.488281 C 76.113281 87.09375 68.9375 86.410156 68.871094 87.542969 C 68.683594 90.859375 73.441406 93.675781 78.171875 93.046875 Z M 341.804688 107.894531 C 342.851562 107.652344 344.207031 107.046875 344.839844 106.542969 C 345.179688 106.269531 345.222656 106.050781 345.269531 104.328125 L 345.324219 102.414062 L 344.015625 101.699219 C 340.636719 99.851562 337.75 100.800781 337.375 103.882812 C 337.027344 106.769531 338.988281 108.546875 341.804688 107.894531 Z M 55.910156 89.257812 C 61.480469 88.652344 66.082031 86.019531 66.234375 83.34375 C 66.289062 82.410156 53.421875 81.101562 49.792969 81.667969 C 45.636719 82.320312 43.296875 83.972656 42.65625 86.710938 C 42.328125 88.125 42.285156 88.078125 44.117188 88.480469 C 47.683594 89.269531 52.742188 89.601562 55.910156 89.257812 Z M 83.859375 86.125 C 83.925781 78.957031 73.699219 73.488281 73.335938 80.496094 C 73.117188 84.675781 75.953125 86.847656 82.980469 87.878906 C 83.777344 87.996094 83.84375 87.867188 83.859375 86.125 Z M 36.820312 84.007812 C 38.296875 83.605469 39.277344 83.113281 40.054688 82.375 L 40.574219 81.882812 L 40.246094 81.109375 C 38.390625 76.75 29.730469 76.511719 29.488281 80.808594 C 29.320312 83.703125 32.617188 85.140625 36.820312 84.007812 Z M 304.953125 98.417969 C 307.824219 97.894531 310.234375 96.03125 310.832031 93.875 L 310.984375 93.3125 L 309.953125 93.105469 C 305.074219 92.121094 299.671875 93.4375 297.582031 96.109375 C 296.90625 96.976562 296.96875 97.074219 298.636719 97.816406 C 300.386719 98.589844 302.761719 98.816406 304.953125 98.417969 Z M 97.574219 86.03125 C 97.714844 83.574219 93.203125 80.171875 88.792969 79.417969 L 87.707031 79.230469 L 87.867188 79.789062 C 88.417969 81.71875 90.539062 84.0625 92.539062 84.953125 C 94.128906 85.664062 97.554688 86.394531 97.574219 86.03125 Z M 350.511719 98.992188 C 351.925781 98.363281 352.652344 97.367188 352.734375 95.933594 C 352.914062 92.796875 346.734375 93.617188 345.941406 96.835938 C 345.488281 98.65625 348.289062 99.976562 350.511719 98.992188 Z M 332.269531 95.964844 C 333.945312 95.617188 335.988281 94.730469 336.75 94.019531 L 337.296875 93.511719 L 336.910156 92.671875 C 334.894531 88.28125 321.667969 86.277344 314.132812 89.222656 L 313.125 89.613281 L 313.363281 90.148438 C 315.128906 94.097656 325.660156 97.335938 332.269531 95.964844 Z M 54.058594 79.519531 C 58.785156 78.765625 62.898438 76 62.605469 73.769531 C 62.039062 69.488281 41.4375 69.738281 41.207031 74.03125 C 40.996094 77.929688 47.25 80.601562 54.058594 79.519531 Z M 300 92.617188 C 303.863281 91.917969 306.511719 88.910156 306.734375 84.960938 L 306.828125 83.355469 L 306.167969 83.085938 C 302.03125 81.382812 296.78125 85.648438 295.632812 91.652344 L 295.460938 92.550781 L 296.0625 92.667969 C 296.871094 92.828125 298.992188 92.800781 300 92.617188 Z M 284.402344 90.417969 C 287.335938 90.027344 289.832031 88.527344 291.375 86.226562 C 292.496094 84.550781 292.59375 84.105469 291.816406 84.207031 C 286.757812 84.871094 283.542969 86.910156 282.414062 90.167969 C 282.246094 90.65625 282.429688 90.679688 284.402344 90.417969 Z M 26.515625 75.128906 C 27.164062 74.996094 27.117188 74.023438 26.390625 72.683594 L 25.789062 71.566406 L 24.894531 71.632812 C 23.511719 71.738281 21.464844 72.957031 21.421875 73.703125 C 21.394531 74.148438 25.585938 75.324219 26.515625 75.132812 Z M 69.0625 76.871094 C 70.15625 76.4375 70.835938 75.636719 70.804688 74.820312 C 70.75 73.234375 66.121094 72.640625 65.117188 74.09375 C 63.730469 76.097656 66.359375 77.949219 69.0625 76.871094 Z M 83.773438 77.175781 C 83.3125 75.730469 82.128906 74.839844 79.476562 73.945312 C 77.867188 73.40625 77.859375 73.40625 78.066406 74.390625 C 78.375 75.863281 79.554688 76.769531 82.265625 77.609375 C 84.171875 78.199219 84.105469 78.21875 83.773438 77.175781 Z M 347.410156 91.671875 C 349.578125 91.066406 351.144531 88.660156 350.292969 87.230469 C 348.308594 83.902344 339.667969 85.136719 339.460938 88.78125 C 339.351562 90.710938 344.339844 92.527344 347.410156 91.671875 Z M 37.683594 71.488281 C 40.984375 69.925781 40.324219 65.980469 36.667969 65.4375 C 32.085938 64.753906 29.273438 69.824219 33.269531 71.558594 C 34.46875 72.078125 36.503906 72.042969 37.683594 71.488281 Z M 332.488281 86.40625 C 336.753906 86.046875 339.1875 84.050781 338.628906 81.375 C 337.417969 75.585938 319.082031 75.421875 317.28125 81.183594 C 316.527344 83.605469 326.230469 86.9375 332.488281 86.40625 Z M 297.679688 82.863281 C 300.132812 82.339844 302.304688 80.816406 302.375 79.574219 C 302.46875 77.964844 297.328125 80.25 296.089844 82.371094 C 295.511719 83.363281 295.449219 83.34375 297.679688 82.863281 Z M 314.210938 82.976562 C 316.632812 82.261719 315.507812 79.425781 312.742188 79.265625 C 309.585938 79.089844 308.96875 79.6875 310.027344 81.902344 L 310.546875 82.996094 L 312.074219 83.074219 C 312.914062 83.121094 313.875 83.074219 314.210938 82.976562 Z M 25.527344 64 C 26.886719 63.734375 26.832031 63.5 25.273438 62.851562 C 23.324219 62.046875 21.722656 62.152344 21.671875 63.089844 C 21.617188 64.03125 23.324219 64.4375 25.527344 64 Z M 357.367188 82.53125 C 358.589844 82.015625 358.707031 81.40625 357.761719 80.441406 C 356.300781 78.949219 352.914062 80.125 352.796875 82.164062 C 352.746094 83.019531 355.648438 83.253906 357.367188 82.53125 Z M 50.191406 65.113281 C 50.492188 64.792969 50.03125 63.386719 49.382812 62.660156 C 46.765625 59.726562 40.03125 59.964844 39.855469 62.996094 C 39.800781 63.96875 49.410156 65.9375 50.191406 65.113281 Z M 347.609375 78.953125 C 351.664062 76.878906 347.375 71.5 342.917969 73.070312 C 341.085938 73.714844 339.933594 75.71875 340.574219 77.152344 C 341.410156 79.03125 345.445312 80.0625 347.609375 78.953125 Z M 335.113281 71.980469 C 338.785156 71.667969 341.414062 69.960938 340.019531 68.789062 C 337.085938 66.328125 330.777344 68.015625 330.566406 71.320312 L 330.527344 71.902344 L 332.1875 71.996094 C 333.097656 72.046875 334.414062 72.039062 335.113281 71.980469 Z M 358.914062 71.847656 C 359.722656 71.113281 357.6875 70.171875 355.957031 70.484375 C 355.082031 70.640625 353.769531 71.4375 353.746094 71.824219 C 353.726562 72.171875 358.53125 72.195312 358.914062 71.847656 Z M 358.914062 71.847656 " fill-opacity="1" fill-rule="nonzero"/></g></g></g><path stroke-linecap="butt" transform="matrix(0.75, -0.000000000000000837, 0.000000000000000837, 0.75, 331.182052, 188.624988)" fill="none" stroke-linejoin="miter" d="M 0.0020552 1.500017 L 49.866642 1.500017 " stroke="#8b3c22" stroke-width="3" stroke-opacity="1" stroke-miterlimit="4"/><path stroke-linecap="butt" transform="matrix(0.75, 0, 0, 0.75, 10.273532, 187.499988)" fill="none" stroke-linejoin="miter" d="M -0.000125554 1.500017 L 50.150919 1.500017 " stroke="#8b3c22" stroke-width="3" stroke-opacity="1" stroke-miterlimit="4"/></svg>